#N canvas -9 -9 1910 1004 10;
#X obj 4262 -300 cnv 15 5 2284 empty empty empty 20 12 0 14 -233017
-66577 0;
#X obj 17 1980 cnv 15 4252 6 empty empty empty 20 12 0 14 -233017 -66577
0;
#X obj 15 -300 cnv 15 4 2284 empty empty empty 20 12 0 14 -233017 -66577
0;
#X obj 15 -300 cnv 15 4259 6 empty empty empty 20 12 0 14 -233017 -66577
0;
#X obj 44 473 cnv 15 155 440 empty empty empty 20 12 0 14 -258049 -1
0;
#X obj 61 497 vradio 19 0 0 13 empty one Root_Pitch 0 -8 0 15 -262144
-1 -1 0;
#X text 85 537 C#;
#X text 85 556 D;
#X text 85 576 Eb;
#X text 85 593 E;
#X text 85 611 F;
#X text 85 631 F#;
#X text 85 650 G;
#X text 86 688 A;
#X text 86 707 Bb;
#X text 86 724 B;
#X text 85 517 C;
#X text 85 669 Ab;
#X obj 367 362 cnv 15 160 320 empty empty empty 20 12 0 14 -258081
-1 0;
#X obj 378 380 vradio 18 0 0 12 empty two Harmony 0 -8 0 15 -262144
-1 -1 0;
#X text 399 434 I7;
#X text 399 398 Imaj7;
#X text 399 470 II7;
#X text 399 488 IV7;
#X text 399 524 IVmaj7;
#X text 399 452 bIImaj7;
#X text 399 542 bVI7;
#X text 399 416 im7;
#X text 399 506 ivm7;
#X text 399 562 bVImaj7;
#X text 399 580 vim7;
#X obj 843 236 cnv 15 200 320 empty empty empty 20 12 0 14 -260097
-1 0;
#X obj 856 267 vradio 19 0 0 10 empty three Time_signature 0 -8 0 15
-262144 -1 -1 0;
#X text 878 288 12/8;
#X text 878 306 11/8;
#X text 878 325 10/8;
#X text 885 343 9/8;
#X text 885 363 8/8;
#X text 885 382 7/8;
#X text 885 401 6/8;
#X text 885 421 5/8;
#X text 885 439 4/8;
#X obj 1543 135 cnv 15 588 261 empty empty empty 20 12 0 14 -261682
-66577 0;
#X obj 1553 160 vradio 17 0 0 4 empty five Instrumentation_Group_1
0 -8 0 15 -262144 -1 -1 0;
#X text 1573 177 Crotales + Hi-Hat;
#X text 1573 195 Glockenspiel + Hi-Hat;
#X text 1573 212 Xylophone + Hi-Hat;
#X obj 2166 406 cnv 15 697 267 empty empty empty 20 12 0 14 -262130
-66577 0;
#X obj 2178 433 vradio 17 0 0 3 empty six Instrumentation_Group_2 0
-8 0 15 -262144 -1 -1 0;
#X text 2198 450 Synth Brass + Snare;
#X text 2198 466 FM Synth + Snare + Tom-Toms;
#X obj 2921 684 cnv 15 658 253 empty empty empty 20 12 0 14 -204786
-66577 0;
#X obj 2936 711 vradio 17 0 0 6 empty seven Instrumentation_Group_3
0 -8 0 15 -262144 -1 -1 0;
#X text 2958 731 Harp + Bass Drum;
#X text 2958 747 Square + Bass Drum;
#X text 2958 762 Chiff + Bass Drum;
#X text 2958 778 Bass & Lead + Bass Drum;
#X text 2958 796 Vibraphone + Bass Drum;
#X obj 3697 967 cnv 15 526 248 empty empty empty 20 12 0 14 -203904
-66577 0;
#X obj 3709 994 vradio 17 0 0 6 empty eight Instrumentation_Group_4
0 -8 0 15 -262144 -1 -1 0;
#X text 3729 1014 Harp Paulstretch;
#X text 3729 1030 Square Paulstretch;
#X text 3729 1045 Chiff Paulstretch;
#X text 3728 1079 Vibraphone Paulstretch;
#X text 3729 1061 Bass Paulstretch;
#N canvas 0 0 1892 963 dictionaryPitch 1;
#X obj 315 15 text define -k pitchDict;
#A set zero \; C \; C# \; D \; Eb \; E \; F \; F# \; G \; Ab \; A \;
Bb \; B \;;
#X obj 150 61 inlet;
#X text 157 84 this comes from the radio;
#X obj 279 113 inlet;
#X text 288 133 this comes from the previous chain;
#X obj 150 173 text get pitchDict;
#X text 174 193 this will get the line with the symbol;
#X text 339 36 here you can click and edit the names of the folders
or the files. Each line is from 0 to N-1. The name you put will be
glued.;
#X obj 150 306 outlet;
#X symbolatom 181 398 14 0 0 0 - - -, f 14;
#X text 351 273 this will glue symbols and do the "zero" magic to prevent
the next sound.;
#X obj 221 297 symbol;
#X text 298 307 check to see if it is working! if it outputs zero \,
somewhere in the chain before some radio is zero.;
#N canvas 57 163 1080 561 GlueWithThePrevious 0;
#X obj 329 11 inlet;
#X obj 443 10 inlet;
#X obj 109 498 outlet;
#X obj 329 58 route zero;
#X obj 443 57 route zero;
#X obj 109 453 list prepend;
#X msg 356 399 zero;
#X msg 470 399 bang;
#X msg 136 344 set \$1;
#X obj 443 137 t a;
#X obj 109 220 makefilename %s/%%s;
#X obj 109 366 makefilename %s;
#X text 10 194 this is a double substitution. see help file;
#X text 18 390 %s is a default in case nothing came yet;
#X obj 109 476 list trim;
#X text 648 25 [t a] is just a way in vanilla to "break" line cords
to help visualize things \, you can blend two lines in one and etc.
;
#X obj 109 243 t b a;
#X obj 109 293 symbol;
#X obj 329 34 list trim;
#X obj 386 84 t a b;
#X obj 443 34 list trim;
#X obj 500 84 t a b;
#X obj 443 84 t a b;
#X obj 329 84 t b b;
#X msg 329 110 zero;
#X obj 109 177 symbol;
#X obj 413 300 list;
#X msg 470 225 zero;
#X msg 527 226 bang;
#X obj 413 353 route zero;
#X obj 413 333 list trim;
#X obj 356 298 t b;
#X obj 527 300 list;
#X msg 356 225 zero;
#X msg 413 226 bang;
#X obj 329 137 t a;
#X connect 0 0 18 0;
#X connect 1 0 20 0;
#X connect 3 0 23 0;
#X connect 3 1 19 0;
#X connect 4 0 22 0;
#X connect 4 1 21 0;
#X connect 5 0 14 0;
#X connect 6 0 5 1;
#X connect 7 0 5 1;
#X connect 8 0 11 0;
#X connect 9 0 17 0;
#X connect 10 0 16 0;
#X connect 11 0 5 0;
#X connect 14 0 2 0;
#X connect 16 0 17 0;
#X connect 16 1 8 0;
#X connect 17 0 11 0;
#X connect 18 0 3 0;
#X connect 19 0 35 0;
#X connect 19 1 34 0;
#X connect 20 0 4 0;
#X connect 21 0 9 0;
#X connect 21 1 28 0;
#X connect 22 0 9 0;
#X connect 22 1 27 0;
#X connect 23 0 24 0;
#X connect 23 1 33 0;
#X connect 24 0 35 0;
#X connect 25 0 10 0;
#X connect 26 0 30 0;
#X connect 27 0 31 0;
#X connect 27 0 26 1;
#X connect 28 0 32 0;
#X connect 28 0 26 1;
#X connect 29 0 6 0;
#X connect 29 1 7 0;
#X connect 30 0 29 0;
#X connect 31 0 6 0;
#X connect 32 0 30 0;
#X connect 33 0 31 0;
#X connect 33 0 32 1;
#X connect 34 0 26 0;
#X connect 34 0 32 1;
#X connect 35 0 25 0;
#X restore 150 263 pd GlueWithThePrevious;
#X obj 71 136 loadbang;
#X msg 70 160 zero;
#X text 5 118 this will start the chain with a zero;
#X symbolatom 70 485 14 0 0 0 - - -, f 14;
#X obj 48 535 s symbol;
#X obj 52 401 symbol;
#X obj 17 335 r loopbang;
#X obj 254 516 s loopbangsymbol;
#X obj 87 360 r loopbangsymbol;
#X obj 784 183 symbol;
#X symbolatom 795 230 14 0 0 0 - - -, f 14;
#X obj 702 186 r loopbang;
#X msg 760 282 \; cnv_BigMessageForBassNote label \$1;
#X obj 767 10 text define -k pitchDictinBb;
#A set zero \; Bb \; B \; C \; C# \; D \; Eb \; E \; F \; F# \; G \;
Ab \; A \;;
#X obj 1066 146 symbol;
#X symbolatom 1077 193 14 0 0 0 - - -, f 14;
#X obj 984 149 r loopbang;
#X msg 1042 245 \; cnv_BigMessageForBassNoteinBb label \$1;
#X obj 605 122 text get pitchDictinBb;
#X connect 1 0 5 0;
#X connect 1 0 32 0;
#X connect 3 0 13 1;
#X connect 5 0 13 0;
#X connect 5 0 23 1;
#X connect 9 0 21 0;
#X connect 11 0 9 0;
#X connect 13 0 8 0;
#X connect 13 0 11 0;
#X connect 14 0 15 0;
#X connect 15 0 13 0;
#X connect 17 0 18 0;
#X connect 19 0 17 0;
#X connect 20 0 19 0;
#X connect 22 0 19 1;
#X connect 23 0 24 0;
#X connect 24 0 26 0;
#X connect 25 0 23 0;
#X connect 28 0 29 0;
#X connect 29 0 31 0;
#X connect 30 0 28 0;
#X connect 32 0 28 1;
#X restore 61 805 pd dictionaryPitch;
#N canvas 523 181 811 366 dictionaryHarmony 0;
#X obj 160 61 inlet;
#X text 167 84 this comes from the radio;
#X obj 289 113 inlet;
#X text 298 133 this comes from the previous chain;
#X text 184 193 this will get the line with the symbol;
#X text 349 36 here you can click and edit the names of the folders
or the files. Each line is from 0 to N-1. The name you put will be
glued.;
#X obj 160 306 outlet;
#X symbolatom 231 318 10 0 0 0 - - -, f 10;
#X text 317 264 this will glue symbols and do the "zero" magic to prevent
the next sound.;
#X obj 231 297 symbol;
#X text 308 307 check to see if it is working! if it outputs zero \,
somewhere in the chain before some radio is zero.;
#X obj 325 15 text define -k harmDict;
#A set zero \; Imaj7 \; im7 \; I7 \; bIImaj7 \; II7 \; IV7 \; ivm7
\; IVmaj7 \; bVI7 \; bVImaj7 \; vim7 \;;
#X obj 160 173 text get harmDict;
#N canvas 57 163 1080 561 GlueWithThePrevious 0;
#X obj 329 11 inlet;
#X obj 443 10 inlet;
#X obj 109 498 outlet;
#X obj 329 58 route zero;
#X obj 443 57 route zero;
#X obj 109 453 list prepend;
#X msg 356 399 zero;
#X msg 470 399 bang;
#X msg 136 344 set \$1;
#X obj 443 137 t a;
#X obj 109 220 makefilename %s/%%s;
#X obj 109 366 makefilename %s;
#X text 10 194 this is a double substitution. see help file;
#X text 18 390 %s is a default in case nothing came yet;
#X obj 109 476 list trim;
#X obj 109 243 t b a;
#X obj 109 293 symbol;
#X obj 329 34 list trim;
#X obj 386 84 t a b;
#X obj 443 34 list trim;
#X obj 500 84 t a b;
#X obj 443 84 t a b;
#X obj 329 84 t b b;
#X msg 329 110 zero;
#X obj 109 177 symbol;
#X obj 413 300 list;
#X msg 470 225 zero;
#X msg 527 226 bang;
#X obj 413 353 route zero;
#X obj 413 333 list trim;
#X obj 356 298 t b;
#X obj 527 300 list;
#X msg 356 225 zero;
#X msg 413 226 bang;
#X obj 329 137 t a;
#X text 623 30 I will not explain that part yet \, test it first \,
this will be a bit tricky to explain.;
#X connect 0 0 17 0;
#X connect 1 0 19 0;
#X connect 3 0 22 0;
#X connect 3 1 18 0;
#X connect 4 0 21 0;
#X connect 4 1 20 0;
#X connect 5 0 14 0;
#X connect 6 0 5 1;
#X connect 7 0 5 1;
#X connect 8 0 11 0;
#X connect 9 0 16 0;
#X connect 10 0 15 0;
#X connect 11 0 5 0;
#X connect 14 0 2 0;
#X connect 15 0 16 0;
#X connect 15 1 8 0;
#X connect 16 0 11 0;
#X connect 17 0 3 0;
#X connect 18 0 34 0;
#X connect 18 1 33 0;
#X connect 19 0 4 0;
#X connect 20 0 9 0;
#X connect 20 1 27 0;
#X connect 21 0 9 0;
#X connect 21 1 26 0;
#X connect 22 0 23 0;
#X connect 22 1 32 0;
#X connect 23 0 34 0;
#X connect 24 0 10 0;
#X connect 25 0 29 0;
#X connect 26 0 30 0;
#X connect 26 0 25 1;
#X connect 27 0 31 0;
#X connect 27 0 25 1;
#X connect 28 0 6 0;
#X connect 28 1 7 0;
#X connect 29 0 28 0;
#X connect 30 0 6 0;
#X connect 31 0 29 0;
#X connect 32 0 30 0;
#X connect 32 0 31 1;
#X connect 33 0 25 0;
#X connect 33 0 31 1;
#X connect 34 0 24 0;
#X restore 160 263 pd GlueWithThePrevious;
#X obj 71 136 loadbang;
#X msg 70 160 zero;
#X text 5 118 this will start the chain with a zero;
#X connect 0 0 12 0;
#X connect 2 0 13 1;
#X connect 9 0 7 0;
#X connect 12 0 13 0;
#X connect 13 0 6 0;
#X connect 13 0 9 0;
#X connect 14 0 15 0;
#X connect 15 0 13 0;
#X restore 378 661 pd dictionaryHarmony;
#N canvas 557 227 808 455 dictionaryTimeSignature 0;
#X obj 170 61 inlet;
#X text 177 84 this comes from the radio;
#X obj 299 113 inlet;
#X text 308 133 this comes from the previous chain;
#X text 359 36 here you can click and edit the names of the folders
or the files. Each line is from 0 to N-1. The name you put will be
glued.;
#X obj 170 346 outlet;
#X symbolatom 241 358 10 0 0 0 - - -, f 10;
#X text 327 304 this will glue symbols and do the "zero" magic to prevent
the next sound.;
#X obj 241 337 symbol;
#X text 318 347 check to see if it is working! if it outputs zero \,
somewhere in the chain before some radio is zero.;
#X obj 335 15 text define -k timeSig;
#A set zero \; 128 \; 118 \; 108 \; 98 \; 88 \; 78 \; 68 \; 58 \; 48
\;;
#X obj 170 173 text get timeSig;
#X obj 227 260 makefilename %d;
#X text 240 224 this is needed because the logic below only works with
symbols. This is a trick to convert a float to a symbol;
#X obj 170 236 route zero;
#X msg 170 259 zero;
#X obj 170 215 list trim;
#X text 325 251 but if it is zero \, propagate zero anyway.;
#X text 274 173 this will get the line with the float or the symbol
zero (only in this case \, so this will need to be converted to a symbol)
;
#N canvas 57 163 1080 561 GlueWithThePrevious 0;
#X obj 329 11 inlet;
#X obj 443 10 inlet;
#X obj 109 498 outlet;
#X obj 329 58 route zero;
#X obj 443 57 route zero;
#X obj 109 453 list prepend;
#X msg 356 399 zero;
#X msg 470 399 bang;
#X msg 136 344 set \$1;
#X obj 443 137 t a;
#X obj 109 220 makefilename %s/%%s;
#X obj 109 366 makefilename %s;
#X text 10 194 this is a double substitution. see help file;
#X text 18 390 %s is a default in case nothing came yet;
#X obj 109 476 list trim;
#X obj 109 243 t b a;
#X obj 109 293 symbol;
#X obj 329 34 list trim;
#X obj 386 84 t a b;
#X obj 443 34 list trim;
#X obj 500 84 t a b;
#X obj 443 84 t a b;
#X obj 329 84 t b b;
#X msg 329 110 zero;
#X obj 109 177 symbol;
#X obj 413 300 list;
#X msg 470 225 zero;
#X msg 527 226 bang;
#X obj 413 353 route zero;
#X obj 413 333 list trim;
#X obj 356 298 t b;
#X obj 527 300 list;
#X msg 356 225 zero;
#X msg 413 226 bang;
#X obj 329 137 t a;
#X text 623 30 I will not explain that part yet \, test it first \,
this will be a bit tricky to explain.;
#X connect 0 0 17 0;
#X connect 1 0 19 0;
#X connect 3 0 22 0;
#X connect 3 1 18 0;
#X connect 4 0 21 0;
#X connect 4 1 20 0;
#X connect 5 0 14 0;
#X connect 6 0 5 1;
#X connect 7 0 5 1;
#X connect 8 0 11 0;
#X connect 9 0 16 0;
#X connect 10 0 15 0;
#X connect 11 0 5 0;
#X connect 14 0 2 0;
#X connect 15 0 16 0;
#X connect 15 1 8 0;
#X connect 16 0 11 0;
#X connect 17 0 3 0;
#X connect 18 0 34 0;
#X connect 18 1 33 0;
#X connect 19 0 4 0;
#X connect 20 0 9 0;
#X connect 20 1 27 0;
#X connect 21 0 9 0;
#X connect 21 1 26 0;
#X connect 22 0 23 0;
#X connect 22 1 32 0;
#X connect 23 0 34 0;
#X connect 24 0 10 0;
#X connect 25 0 29 0;
#X connect 26 0 30 0;
#X connect 26 0 25 1;
#X connect 27 0 31 0;
#X connect 27 0 25 1;
#X connect 28 0 6 0;
#X connect 28 1 7 0;
#X connect 29 0 28 0;
#X connect 30 0 6 0;
#X connect 31 0 29 0;
#X connect 32 0 30 0;
#X connect 32 0 31 1;
#X connect 33 0 25 0;
#X connect 33 0 31 1;
#X connect 34 0 24 0;
#X restore 170 303 pd GlueWithThePrevious;
#X obj 71 136 loadbang;
#X msg 70 160 zero;
#X text 5 118 this will start the chain with a zero;
#X connect 0 0 11 0;
#X connect 2 0 19 1;
#X connect 8 0 6 0;
#X connect 11 0 16 0;
#X connect 12 0 19 0;
#X connect 14 0 15 0;
#X connect 14 1 12 0;
#X connect 15 0 19 0;
#X connect 16 0 14 0;
#X connect 19 0 5 0;
#X connect 19 0 8 0;
#X connect 20 0 21 0;
#X connect 21 0 19 0;
#X restore 856 500 pd dictionaryTimeSignature;
#X obj 2259 594 r loop;
#X obj 3796 1164 r loop;
#X obj 2289 511 r commonParameters;
#X symbolatom 2289 558 0 0 0 0 - - -;
#N canvas 221 282 875 378 dictionaryGroup2 0;
#X obj 240 31 inlet;
#X text 247 54 this comes from the radio;
#X obj 369 103 inlet;
#X text 378 123 this comes from the previous chain;
#X text 264 173 this will get the line with the symbol;
#X text 429 36 here you can click and edit the names of the folders
or the files. Each line is from 0 to N-1. The name you put will be
glued.;
#X obj 240 286 outlet;
#X symbolatom 311 298 0 0 0 0 - - -;
#X text 397 244 this will glue symbols and do the "zero" magic to prevent
the next sound.;
#X obj 311 277 symbol;
#X text 408 287 check to see if it is working! if it outputs zero \,
somewhere in the chain before some radio is zero.;
#N canvas 57 163 1080 561 GlueWithThePrevious 0;
#X obj 329 11 inlet;
#X obj 443 10 inlet;
#X obj 109 498 outlet;
#X obj 329 58 route zero;
#X obj 443 57 route zero;
#X obj 109 453 list prepend;
#X msg 356 399 zero;
#X msg 470 399 bang;
#X msg 136 344 set \$1;
#X obj 443 137 t a;
#X obj 109 366 makefilename %s;
#X text 10 194 this is a double substitution. see help file;
#X text 18 390 %s is a default in case nothing came yet;
#X obj 109 476 list trim;
#X obj 109 243 t b a;
#X obj 109 293 symbol;
#X obj 329 34 list trim;
#X obj 386 84 t a b;
#X obj 443 34 list trim;
#X obj 500 84 t a b;
#X obj 443 84 t a b;
#X obj 329 84 t b b;
#X msg 329 110 zero;
#X obj 109 177 symbol;
#X obj 413 300 list;
#X msg 470 225 zero;
#X msg 527 226 bang;
#X obj 413 353 route zero;
#X obj 413 333 list trim;
#X obj 356 298 t b;
#X obj 527 300 list;
#X msg 356 225 zero;
#X msg 413 226 bang;
#X obj 329 137 t a;
#X obj 109 220 makefilename %%s%s;
#X connect 0 0 16 0;
#X connect 1 0 18 0;
#X connect 3 0 21 0;
#X connect 3 1 17 0;
#X connect 4 0 20 0;
#X connect 4 1 19 0;
#X connect 5 0 13 0;
#X connect 6 0 5 1;
#X connect 7 0 5 1;
#X connect 8 0 10 0;
#X connect 9 0 15 0;
#X connect 10 0 5 0;
#X connect 13 0 2 0;
#X connect 14 0 15 0;
#X connect 14 1 8 0;
#X connect 15 0 10 0;
#X connect 16 0 3 0;
#X connect 17 0 33 0;
#X connect 17 1 32 0;
#X connect 18 0 4 0;
#X connect 19 0 9 0;
#X connect 19 1 26 0;
#X connect 20 0 9 0;
#X connect 20 1 25 0;
#X connect 21 0 22 0;
#X connect 21 1 31 0;
#X connect 22 0 33 0;
#X connect 23 0 34 0;
#X connect 24 0 28 0;
#X connect 25 0 29 0;
#X connect 25 0 24 1;
#X connect 26 0 30 0;
#X connect 26 0 24 1;
#X connect 27 0 6 0;
#X connect 27 1 7 0;
#X connect 28 0 27 0;
#X connect 29 0 6 0;
#X connect 30 0 28 0;
#X connect 31 0 29 0;
#X connect 31 0 30 1;
#X connect 32 0 24 0;
#X connect 32 0 30 1;
#X connect 33 0 23 0;
#X connect 34 0 14 0;
#X restore 240 243 pd GlueWithThePrevious;
#X text 276 220 THERE IS DIFERENT LOGIC TO GLUE IN MAKEFILENAME;
#X obj 311 336 outlet;
#X obj 405 15 text define -k group2Dict;
#A set zero \; 18.wav \; 9.wav \;;
#X obj 240 153 text get group2Dict;
#X obj 71 136 loadbang;
#X msg 70 160 zero;
#X text 5 118 this will start the chain with a zero;
#X connect 0 0 15 0;
#X connect 2 0 11 1;
#X connect 7 0 13 0;
#X connect 9 0 7 0;
#X connect 11 0 6 0;
#X connect 11 0 9 0;
#X connect 15 0 11 0;
#X connect 16 0 17 0;
#X connect 17 0 11 0;
#X restore 2178 533 pd dictionaryGroup2;
#X obj 3047 816 r commonParameters;
#X symbolatom 3047 874 0 0 0 0 - - -;
#N canvas 1 266 883 395 dictionaryGroup3 0;
#X obj 240 31 inlet;
#X text 247 54 this comes from the radio;
#X obj 369 103 inlet;
#X text 378 123 this comes from the previous chain;
#X text 264 173 this will get the line with the symbol;
#X text 429 36 here you can click and edit the names of the folders
or the files. Each line is from 0 to N-1. The name you put will be
glued.;
#X obj 240 286 outlet;
#X symbolatom 311 298 0 0 0 0 - - -;
#X text 397 244 this will glue symbols and do the "zero" magic to prevent
the next sound.;
#X obj 311 277 symbol;
#X text 408 287 check to see if it is working! if it outputs zero \,
somewhere in the chain before some radio is zero.;
#N canvas 57 163 1080 561 GlueWithThePrevious 0;
#X obj 329 11 inlet;
#X obj 443 10 inlet;
#X obj 109 498 outlet;
#X obj 329 58 route zero;
#X obj 443 57 route zero;
#X obj 109 453 list prepend;
#X msg 356 399 zero;
#X msg 470 399 bang;
#X msg 136 344 set \$1;
#X obj 443 137 t a;
#X obj 109 366 makefilename %s;
#X text 10 194 this is a double substitution. see help file;
#X text 18 390 %s is a default in case nothing came yet;
#X obj 109 476 list trim;
#X obj 109 243 t b a;
#X obj 109 293 symbol;
#X obj 329 34 list trim;
#X obj 386 84 t a b;
#X obj 443 34 list trim;
#X obj 500 84 t a b;
#X obj 443 84 t a b;
#X obj 329 84 t b b;
#X msg 329 110 zero;
#X obj 109 177 symbol;
#X obj 413 300 list;
#X msg 470 225 zero;
#X msg 527 226 bang;
#X obj 413 353 route zero;
#X obj 413 333 list trim;
#X obj 356 298 t b;
#X obj 527 300 list;
#X msg 356 225 zero;
#X msg 413 226 bang;
#X obj 329 137 t a;
#X obj 109 220 makefilename %%s%s;
#X connect 0 0 16 0;
#X connect 1 0 18 0;
#X connect 3 0 21 0;
#X connect 3 1 17 0;
#X connect 4 0 20 0;
#X connect 4 1 19 0;
#X connect 5 0 13 0;
#X connect 6 0 5 1;
#X connect 7 0 5 1;
#X connect 8 0 10 0;
#X connect 9 0 15 0;
#X connect 10 0 5 0;
#X connect 13 0 2 0;
#X connect 14 0 15 0;
#X connect 14 1 8 0;
#X connect 15 0 10 0;
#X connect 16 0 3 0;
#X connect 17 0 33 0;
#X connect 17 1 32 0;
#X connect 18 0 4 0;
#X connect 19 0 9 0;
#X connect 19 1 26 0;
#X connect 20 0 9 0;
#X connect 20 1 25 0;
#X connect 21 0 22 0;
#X connect 21 1 31 0;
#X connect 22 0 33 0;
#X connect 23 0 34 0;
#X connect 24 0 28 0;
#X connect 25 0 29 0;
#X connect 25 0 24 1;
#X connect 26 0 30 0;
#X connect 26 0 24 1;
#X connect 27 0 6 0;
#X connect 27 1 7 0;
#X connect 28 0 27 0;
#X connect 29 0 6 0;
#X connect 30 0 28 0;
#X connect 31 0 29 0;
#X connect 31 0 30 1;
#X connect 32 0 24 0;
#X connect 32 0 30 1;
#X connect 33 0 23 0;
#X connect 34 0 14 0;
#X restore 240 243 pd GlueWithThePrevious;
#X text 276 220 THERE IS DIFERENT LOGIC TO GLUE IN MAKEFILENAME;
#X obj 311 336 outlet;
#X obj 405 15 text define -k group3Dict;
#A set zero \; 12.wav \; 16.wav \; 4.wav \; 1.wav \; 20.wav \;;
#X obj 240 153 text get group3Dict;
#X obj 71 136 loadbang;
#X msg 70 160 zero;
#X text 5 118 this will start the chain with a zero;
#X connect 0 0 15 0;
#X connect 2 0 11 1;
#X connect 7 0 13 0;
#X connect 9 0 7 0;
#X connect 11 0 6 0;
#X connect 11 0 9 0;
#X connect 15 0 11 0;
#X connect 16 0 17 0;
#X connect 17 0 11 0;
#X restore 2936 838 pd dictionaryGroup3;
#X obj 3820 1101 r commonParameters;
#X symbolatom 3820 1142 0 0 0 0 - - -;
#N canvas 453 223 912 392 dictionaryGroup4 0;
#X obj 230 31 inlet;
#X text 237 54 this comes from the radio;
#X obj 359 103 inlet;
#X text 368 123 this comes from the previous chain;
#X text 254 173 this will get the line with the symbol;
#X text 419 36 here you can click and edit the names of the folders
or the files. Each line is from 0 to N-1. The name you put will be
glued.;
#X obj 230 286 outlet;
#X symbolatom 301 298 0 0 0 0 - - -;
#X text 387 244 this will glue symbols and do the "zero" magic to prevent
the next sound.;
#X obj 301 277 symbol;
#X text 398 287 check to see if it is working! if it outputs zero \,
somewhere in the chain before some radio is zero.;
#N canvas 57 163 1080 561 GlueWithThePrevious 0;
#X obj 329 11 inlet;
#X obj 443 10 inlet;
#X obj 109 498 outlet;
#X obj 329 58 route zero;
#X obj 443 57 route zero;
#X obj 109 453 list prepend;
#X msg 356 399 zero;
#X msg 470 399 bang;
#X msg 136 344 set \$1;
#X obj 443 137 t a;
#X obj 109 366 makefilename %s;
#X text 10 194 this is a double substitution. see help file;
#X text 18 390 %s is a default in case nothing came yet;
#X obj 109 476 list trim;
#X obj 109 243 t b a;
#X obj 109 293 symbol;
#X obj 329 34 list trim;
#X obj 386 84 t a b;
#X obj 443 34 list trim;
#X obj 500 84 t a b;
#X obj 443 84 t a b;
#X obj 329 84 t b b;
#X msg 329 110 zero;
#X obj 109 177 symbol;
#X obj 413 300 list;
#X msg 470 225 zero;
#X msg 527 226 bang;
#X obj 413 353 route zero;
#X obj 413 333 list trim;
#X obj 356 298 t b;
#X obj 527 300 list;
#X msg 356 225 zero;
#X msg 413 226 bang;
#X obj 329 137 t a;
#X obj 109 220 makefilename %%s%s;
#X connect 0 0 16 0;
#X connect 1 0 18 0;
#X connect 3 0 21 0;
#X connect 3 1 17 0;
#X connect 4 0 20 0;
#X connect 4 1 19 0;
#X connect 5 0 13 0;
#X connect 6 0 5 1;
#X connect 7 0 5 1;
#X connect 8 0 10 0;
#X connect 9 0 15 0;
#X connect 10 0 5 0;
#X connect 13 0 2 0;
#X connect 14 0 15 0;
#X connect 14 1 8 0;
#X connect 15 0 10 0;
#X connect 16 0 3 0;
#X connect 17 0 33 0;
#X connect 17 1 32 0;
#X connect 18 0 4 0;
#X connect 19 0 9 0;
#X connect 19 1 26 0;
#X connect 20 0 9 0;
#X connect 20 1 25 0;
#X connect 21 0 22 0;
#X connect 21 1 31 0;
#X connect 22 0 33 0;
#X connect 23 0 34 0;
#X connect 24 0 28 0;
#X connect 25 0 29 0;
#X connect 25 0 24 1;
#X connect 26 0 30 0;
#X connect 26 0 24 1;
#X connect 27 0 6 0;
#X connect 27 1 7 0;
#X connect 28 0 27 0;
#X connect 29 0 6 0;
#X connect 30 0 28 0;
#X connect 31 0 29 0;
#X connect 31 0 30 1;
#X connect 32 0 24 0;
#X connect 32 0 30 1;
#X connect 33 0 23 0;
#X connect 34 0 14 0;
#X restore 230 243 pd GlueWithThePrevious;
#X text 266 220 THERE IS DIFERENT LOGIC TO GLUE IN MAKEFILENAME;
#X obj 301 336 outlet;
#X obj 395 15 text define -k group4Dict;
#A set zero \; Paulstretch4.wav \; Paulstretch5.wav \; Paulstretch2.wav
\; Paulstretch1.wav \; Paulstretch6.wav \;;
#X obj 230 153 text get group4Dict;
#X obj 71 136 loadbang;
#X msg 70 160 zero;
#X text 5 118 this will start the chain with a zero;
#X connect 0 0 15 0;
#X connect 2 0 11 1;
#X connect 7 0 13 0;
#X connect 9 0 7 0;
#X connect 11 0 6 0;
#X connect 11 0 9 0;
#X connect 15 0 11 0;
#X connect 16 0 17 0;
#X connect 17 0 11 0;
#X restore 3709 1121 pd dictionaryGroup4;
#X symbolatom 83 853 0 0 0 0 - - -;
#X obj 83 832 symbol;
#X obj 2178 501 t f f;
#X obj 3030 896 r loop;
#N canvas 64 113 658 476 group3readsf 0;
#X obj 29 14 inlet;
#X obj 29 37 route zero;
#X obj 154 15 inlet;
#X obj 154 148 spigot;
#X msg 187 121 0;
#X msg 227 121 1;
#X obj 29 85 t b;
#X obj 86 85 t s b;
#X msg 86 318 open Ab/ivm7/128/12.wav \, 1;
#X obj 86 61 symbol;
#X obj 154 246 t b b;
#X obj 86 341 readsf~;
#X obj 125 371 s loop;
#X msg 86 195 set open \$1 \, addcomma \, add2 1;
#X text 265 123 spigot logic makes the next sound to be triggered only
if there is no zero in the chain.;
#X text 281 193 this is what creates a dynamic message \, and allows
all the logic i made work automatically.;
#X text 210 247 here you will trigger every readsf~ for the group;
#X obj 283 342 readsf~;
#X obj 322 372 s loop;
#X text 286 284 this one isn't dynamic \, it can be on a separate folder
if you want \, it is the bass drum in this group.;
#X obj 86 394 throw~ instrumentation_three;
#X msg 283 319 open C/Imaj7/128/3.wav \, 1;
#X obj 283 395 throw~ drum_three;
#X obj 170 359 s loopbang;
#X connect 0 0 1 0;
#X connect 1 0 6 0;
#X connect 1 1 9 0;
#X connect 2 0 3 0;
#X connect 3 0 10 0;
#X connect 4 0 3 1;
#X connect 5 0 3 1;
#X connect 6 0 4 0;
#X connect 7 0 13 0;
#X connect 7 1 5 0;
#X connect 8 0 11 0;
#X connect 9 0 7 0;
#X connect 10 0 8 0;
#X connect 10 1 21 0;
#X connect 11 0 20 0;
#X connect 11 1 12 0;
#X connect 11 1 23 0;
#X connect 13 0 8 0;
#X connect 17 0 22 0;
#X connect 17 1 18 0;
#X connect 21 0 17 0;
#X restore 2937 914 pd group3readsf;
#N canvas 493 189 658 453 group4readsf 0;
#X obj 29 14 inlet;
#X obj 29 37 route zero;
#X obj 154 15 inlet;
#X obj 154 148 spigot;
#X msg 187 121 0;
#X msg 227 121 1;
#X obj 29 85 t b;
#X obj 86 85 t s b;
#X obj 86 61 symbol;
#X obj 154 246 t b b;
#X obj 86 341 readsf~;
#X obj 125 371 s loop;
#X msg 86 195 set open \$1 \, addcomma \, add2 1;
#X text 265 123 spigot logic makes the next sound to be triggered only
if there is no zero in the chain.;
#X text 281 193 this is what creates a dynamic message \, and allows
all the logic i made work automatically.;
#X text 210 247 here you will trigger every readsf~ for the group;
#X obj 267 342 readsf~;
#X obj 306 372 s loop;
#X obj 267 395 throw~ instrumentation_four;
#X obj 86 394 throw~ instrumentation_four;
#X msg 267 319 open C/Imaj7/128/Paulstretch3.wav \, 1;
#X msg 86 318 open C/Imaj7/128/Paulstretch4.wav \, 1;
#X obj 178 361 s loopbang;
#X connect 0 0 1 0;
#X connect 1 0 6 0;
#X connect 1 1 8 0;
#X connect 2 0 3 0;
#X connect 3 0 9 0;
#X connect 4 0 3 1;
#X connect 5 0 3 1;
#X connect 6 0 4 0;
#X connect 7 0 12 0;
#X connect 7 1 5 0;
#X connect 8 0 7 0;
#X connect 9 0 21 0;
#X connect 9 1 20 0;
#X connect 10 0 19 0;
#X connect 10 1 11 0;
#X connect 10 1 22 0;
#X connect 12 0 21 0;
#X connect 16 0 18 0;
#X connect 16 1 17 0;
#X connect 20 0 16 0;
#X connect 21 0 10 0;
#X restore 3709 1185 pd group4readsf;
#X text 1908 234 Turn sound effects on/off for hi-hat;
#X text 2584 464 Turn sound effects on for chords;
#X text 2585 513 Turn sound effects on/off for snare \, tom-toms;
#X text 3335 714 Turn sound effects on for bass;
#X text 3335 756 Turn sound effects on/off for bass drum;
#X obj 1882 202 s melodyFX;
#X obj 1883 260 s hi-hatFX;
#X obj 2558 487 s chordsFX;
#X obj 2559 534 s snareFX;
#X obj 3309 735 s bassFX;
#X obj 3309 777 s bassdrumFX;
#X text 1908 181 Turn sound effects on/off for melody;
#X obj 1282 134 cnv 15 152 261 empty empty empty 20 12 0 14 -4096 -1
0;
#X obj 1289 158 vradio 17 0 0 3 empty four Melodic_contours 0 -8 0
15 -262144 -1 -1 0;
#X text 1306 175 asc;
#X text 1306 193 des;
#X obj 1609 246 r commonParameters;
#N canvas 1 83 948 655 dictionaryGroup1 0;
#X obj 230 31 inlet;
#X text 237 54 this comes from the radio;
#X obj 359 153 inlet;
#X text 368 173 this comes from the previous chain;
#X text 254 223 this will get the line with the symbol;
#X text 419 36 here you can click and edit the names of the folders
or the files. Each line is from 0 to N-1. The name you put will be
glued.;
#X obj 230 336 outlet;
#X symbolatom 301 348 0 0 0 0 - - -;
#X text 387 294 this will glue symbols and do the "zero" magic to prevent
the next sound.;
#X obj 301 327 symbol;
#X text 398 337 check to see if it is working! if it outputs zero \,
somewhere in the chain before some radio is zero.;
#N canvas 57 163 1080 561 GlueWithThePrevious 0;
#X obj 329 11 inlet;
#X obj 443 10 inlet;
#X obj 109 498 outlet;
#X obj 329 58 route zero;
#X obj 443 57 route zero;
#X obj 109 453 list prepend;
#X msg 356 399 zero;
#X msg 470 399 bang;
#X msg 136 344 set \$1;
#X obj 443 137 t a;
#X obj 109 366 makefilename %s;
#X text 10 194 this is a double substitution. see help file;
#X text 18 390 %s is a default in case nothing came yet;
#X obj 109 476 list trim;
#X obj 109 243 t b a;
#X obj 109 293 symbol;
#X obj 329 34 list trim;
#X obj 386 84 t a b;
#X obj 443 34 list trim;
#X obj 500 84 t a b;
#X obj 443 84 t a b;
#X obj 329 84 t b b;
#X msg 329 110 zero;
#X obj 109 177 symbol;
#X obj 413 300 list;
#X msg 470 225 zero;
#X msg 527 226 bang;
#X obj 413 353 route zero;
#X obj 413 333 list trim;
#X obj 356 298 t b;
#X obj 527 300 list;
#X msg 356 225 zero;
#X msg 413 226 bang;
#X obj 329 137 t a;
#X obj 109 220 makefilename %%s%s;
#X connect 0 0 16 0;
#X connect 1 0 18 0;
#X connect 3 0 21 0;
#X connect 3 1 17 0;
#X connect 4 0 20 0;
#X connect 4 1 19 0;
#X connect 5 0 13 0;
#X connect 6 0 5 1;
#X connect 7 0 5 1;
#X connect 8 0 10 0;
#X connect 9 0 15 0;
#X connect 10 0 5 0;
#X connect 13 0 2 0;
#X connect 14 0 15 0;
#X connect 14 1 8 0;
#X connect 15 0 10 0;
#X connect 16 0 3 0;
#X connect 17 0 33 0;
#X connect 17 1 32 0;
#X connect 18 0 4 0;
#X connect 19 0 9 0;
#X connect 19 1 26 0;
#X connect 20 0 9 0;
#X connect 20 1 25 0;
#X connect 21 0 22 0;
#X connect 21 1 31 0;
#X connect 22 0 33 0;
#X connect 23 0 34 0;
#X connect 24 0 28 0;
#X connect 25 0 29 0;
#X connect 25 0 24 1;
#X connect 26 0 30 0;
#X connect 26 0 24 1;
#X connect 27 0 6 0;
#X connect 27 1 7 0;
#X connect 28 0 27 0;
#X connect 29 0 6 0;
#X connect 30 0 28 0;
#X connect 31 0 29 0;
#X connect 31 0 30 1;
#X connect 32 0 24 0;
#X connect 32 0 30 1;
#X connect 33 0 23 0;
#X connect 34 0 14 0;
#X restore 230 293 pd GlueWithThePrevious;
#X obj 347 29 inlet;
#X obj 395 15 text define -k group1Dict;
#A set zero \; 6.wav \; 7.wav \; 10.wav \; 11.wav \; 22.wav \; 23.wav
\;;
#X obj 230 203 text get group1Dict;
#X text 266 270 THERE IS DIFERENT LOGIC TO GLUE IN MAKEFILENAME;
#X obj 301 386 outlet;
#N canvas 252 295 450 300 convertToImparPar 0;
#X obj 37 32 inlet;
#X obj 325 32 inlet;
#X obj 37 231 outlet;
#X obj 37 55 - 1;
#X obj 325 101 t b f;
#X obj 325 55 - 1;
#X obj 37 146 expr if($f1 == -1 || $f2 == -1 \, 0 \, ($f1 + 1) + $f2*2)
;
#X connect 0 0 3 0;
#X connect 1 0 5 0;
#X connect 3 0 6 0;
#X connect 4 0 6 0;
#X connect 4 1 6 1;
#X connect 5 0 4 0;
#X connect 6 0 2 0;
#X restore 230 95 pd convertToImparPar;
#X text 358 95 little logic to make asc and des turn the number in
crotales/glockenspiel/xylophone to be par or impar \, and I use this
to choose the right file in the dictionary.;
#X floatatom 254 130 5 0 0 0 - - -, f 5;
#X obj 71 136 loadbang;
#X msg 70 160 zero;
#X text 5 118 this will start the chain with a zero;
#X obj 141 31 loadbang;
#X msg 140 55 0;
#X connect 0 0 17 0;
#X connect 2 0 11 1;
#X connect 7 0 16 0;
#X connect 9 0 7 0;
#X connect 11 0 6 0;
#X connect 11 0 9 0;
#X connect 12 0 17 1;
#X connect 14 0 11 0;
#X connect 17 0 14 0;
#X connect 17 0 19 0;
#X connect 20 0 21 0;
#X connect 21 0 11 0;
#X connect 23 0 24 0;
#X connect 24 0 17 0;
#X connect 24 0 17 1;
#X restore 1289 290 pd dictionaryGroup1;
#X obj 1585 322 r loop;
#X symbolatom 1341 554 0 0 0 0 - - -;
#N canvas 142 195 980 994 group1readsf 0;
#X obj 29 14 inlet;
#X obj 29 37 route zero;
#X obj 154 15 inlet;
#X obj 154 148 spigot;
#X msg 187 121 0;
#X msg 227 121 1;
#X obj 29 85 t b;
#X obj 86 85 t s b;
#X msg 86 318 open C/Imaj7/128/6.wav \, 1;
#X obj 86 61 symbol;
#X obj 154 246 t b b;
#X obj 86 341 readsf~;
#X obj 125 371 s loop;
#X msg 86 195 set open \$1 \, addcomma \, add2 1;
#X text 265 123 spigot logic makes the next sound to be triggered only
if there is no zero in the chain.;
#X text 281 193 this is what creates a dynamic message \, and allows
all the logic i made work automatically.;
#X text 210 247 here you will trigger every readsf~ for the group;
#X obj 283 342 readsf~;
#X obj 322 372 s loop;
#X text 286 284 this one isn't dynamic \, it can be on a separate folder
if you want \, it is the hi-hat in this group.;
#X obj 86 394 throw~ instrumentation_one;
#X msg 283 319 open C/Imaj7/128/14.wav \, 1;
#X obj 283 395 throw~ drum_one;
#X obj 482 376 s loopbang;
#X connect 0 0 1 0;
#X connect 1 0 6 0;
#X connect 1 1 9 0;
#X connect 2 0 3 0;
#X connect 3 0 10 0;
#X connect 4 0 3 1;
#X connect 5 0 3 1;
#X connect 6 0 4 0;
#X connect 7 0 13 0;
#X connect 7 1 5 0;
#X connect 8 0 11 0;
#X connect 9 0 7 0;
#X connect 10 0 8 0;
#X connect 10 1 21 0;
#X connect 11 0 20 0;
#X connect 11 1 12 0;
#X connect 13 0 8 0;
#X connect 17 0 22 0;
#X connect 17 1 18 0;
#X connect 17 1 23 0;
#X connect 21 0 17 0;
#X restore 1289 367 pd group1readsf;
#X obj 61 887 s commonParameters;
#X obj 2394 1457 cnv 15 1256 206 empty empty empty 20 12 0 14 -233017
-66577 0;
#X obj 3535 1486 bng 15 250 50 0 empty empty empty 17 7 0 10 -262144
-1 -1;
#X obj 3523 1532 s loop;
#X obj 1882 183 bng 15 250 50 0 empty empty empty 17 7 0 10 -262144
-1 -1;
#X obj 1883 238 bng 15 250 50 0 empty empty empty 17 7 0 10 -262144
-1 -1;
#X obj 2558 465 bng 15 250 50 0 empty empty empty 17 7 0 10 -262144
-1 -1;
#X obj 2559 513 bng 15 250 50 0 empty empty empty 17 7 0 10 -262144
-1 -1;
#X obj 3309 758 bng 15 250 50 0 empty empty empty 17 7 0 10 -262144
-1 -1;
#X obj 3309 715 bng 15 250 50 0 empty empty empty 17 7 0 10 -262144
-1 -1;
#X text 2830 543 shift + 4;
#X msg 2462 1557 0;
#X obj 2462 1531 r stop;
#X obj 2462 1602 s Root_Pitch;
#X obj 2542 1602 s Harmony;
#X obj 2607 1602 s Time_signature;
#X obj 2714 1602 s Melodic_Contours;
#X obj 2833 1602 s Instrumentation_Group_1;
#X obj 2994 1602 s Instrumentation_Group_2;
#X obj 3155 1602 s Instrumentation_Group_3;
#X obj 3316 1602 s Instrumentation_Group_4;
#X obj 2245 251 loadbang;
#X obj 2212 319 s A;
#X obj 2243 319 s B;
#X obj 2272 318 s C;
#X obj 2297 316 s D;
#X obj 2327 314 s E;
#X obj 2362 317 s F;
#X obj 2401 316 s G;
#N canvas 1 83 450 300 q_w_e_r_t_y_u_i_o_p 0;
#X obj 25 281 key;
#X obj 25 323 bng 15 250 50 0 empty empty empty 17 7 0 10 -262144 -1
-1;
#X obj 50 323 bng 15 250 50 0 empty empty empty 17 7 0 10 -262144 -1
-1;
#X obj 76 323 bng 15 250 50 0 empty empty empty 17 7 0 10 -262144 -1
-1;
#X obj 102 323 bng 15 250 50 0 empty empty empty 17 7 0 10 -262144
-1 -1;
#X obj 128 323 bng 15 250 50 0 empty empty empty 17 7 0 10 -262144
-1 -1;
#X msg 25 342 1;
#X msg 50 342 2;
#X msg 76 342 3;
#X msg 102 342 4;
#X msg 128 342 5;
#X obj 25 302 sel 113 119 101 114 116 121 117 105 111 112 91 93, f
52;
#X obj 156 323 bng 15 250 50 0 empty empty empty 17 7 0 10 -262144
-1 -1;
#X obj 181 323 bng 15 250 50 0 empty empty empty 17 7 0 10 -262144
-1 -1;
#X obj 207 323 bng 15 250 50 0 empty empty empty 17 7 0 10 -262144
-1 -1;
#X obj 233 323 bng 15 250 50 0 empty empty empty 17 7 0 10 -262144
-1 -1;
#X obj 259 323 bng 15 250 50 0 empty empty empty 17 7 0 10 -262144
-1 -1;
#X msg 156 342 6;
#X msg 181 342 7;
#X msg 207 342 8;
#X msg 233 342 9;
#X msg 259 342 10;
#X obj 287 323 bng 15 250 50 0 empty empty empty 17 7 0 10 -262144
-1 -1;
#X msg 287 342 11;
#X obj 315 323 bng 15 250 50 0 empty empty empty 17 7 0 10 -262144
-1 -1;
#X msg 315 342 12;
#X obj 25 368 s Root_Pitch;
#X text 57 277 q \, w \, e \, r \, t \, y \, u \, i \, o \, p;
#X obj 45 73 tgl 15 0 empty empty empty 17 7 0 10 -262144 -1 -1 0 1
;
#X obj 35 21 r randomnumbergenerator;
#X obj 32 173 metro 1;
#X floatatom 32 217 5 0 0 0 - - -, f 5;
#X obj 32 195 random 122;
#X obj 35 43 bng 15 250 50 0 empty empty empty 17 7 0 10 -262144 -1
-1;
#X connect 0 0 11 0;
#X connect 1 0 6 0;
#X connect 2 0 7 0;
#X connect 3 0 8 0;
#X connect 4 0 9 0;
#X connect 5 0 10 0;
#X connect 6 0 26 0;
#X connect 7 0 26 0;
#X connect 8 0 26 0;
#X connect 9 0 26 0;
#X connect 10 0 26 0;
#X connect 11 0 1 0;
#X connect 11 1 2 0;
#X connect 11 2 3 0;
#X connect 11 3 4 0;
#X connect 11 4 5 0;
#X connect 11 5 12 0;
#X connect 11 6 13 0;
#X connect 11 7 14 0;
#X connect 11 8 15 0;
#X connect 11 9 16 0;
#X connect 11 10 22 0;
#X connect 11 11 24 0;
#X connect 12 0 17 0;
#X connect 13 0 18 0;
#X connect 14 0 19 0;
#X connect 15 0 20 0;
#X connect 16 0 21 0;
#X connect 17 0 26 0;
#X connect 18 0 26 0;
#X connect 19 0 26 0;
#X connect 20 0 26 0;
#X connect 21 0 26 0;
#X connect 22 0 23 0;
#X connect 23 0 26 0;
#X connect 24 0 25 0;
#X connect 25 0 26 0;
#X connect 28 0 30 0;
#X connect 29 0 33 0;
#X connect 30 0 32 0;
#X connect 32 0 31 0;
#X connect 33 0 28 0;
#X restore 50 417 pd q_w_e_r_t_y_u_i_o_p;
#N canvas 1 83 450 300 a_s_d_f_g_h_j_k_l_ 0;
#X obj 127 158 key;
#X obj 127 200 bng 15 250 50 0 empty empty empty 17 7 0 10 -262144
-1 -1;
#X obj 152 200 bng 15 250 50 0 empty empty empty 17 7 0 10 -262144
-1 -1;
#X obj 178 200 bng 15 250 50 0 empty empty empty 17 7 0 10 -262144
-1 -1;
#X obj 204 200 bng 15 250 50 0 empty empty empty 17 7 0 10 -262144
-1 -1;
#X obj 230 200 bng 15 250 50 0 empty empty empty 17 7 0 10 -262144
-1 -1;
#X msg 127 219 1;
#X msg 152 219 2;
#X msg 178 219 3;
#X msg 204 219 4;
#X msg 230 219 5;
#X obj 258 200 bng 15 250 50 0 empty empty empty 17 7 0 10 -262144
-1 -1;
#X obj 283 200 bng 15 250 50 0 empty empty empty 17 7 0 10 -262144
-1 -1;
#X obj 309 200 bng 15 250 50 0 empty empty empty 17 7 0 10 -262144
-1 -1;
#X obj 335 200 bng 15 250 50 0 empty empty empty 17 7 0 10 -262144
-1 -1;
#X obj 361 200 bng 15 250 50 0 empty empty empty 17 7 0 10 -262144
-1 -1;
#X msg 258 219 6;
#X msg 283 219 7;
#X msg 309 219 8;
#X msg 335 219 9;
#X msg 361 219 10;
#X obj 389 200 bng 15 250 50 0 empty empty empty 17 7 0 10 -262144
-1 -1;
#X msg 389 219 11;
#X obj 127 179 sel 97 115 100 102 103 104 106 107 108 59 39, f 52
;
#X obj 127 245 s Harmony;
#X text 338 120 \, ';
#X text 161 120 a \, s \, d \, f \, g \, h \, j \, k \, l \,, f 34
;
#X text 327 120 \; ;
#X obj 38 79 tgl 15 0 empty empty empty 17 7 0 10 -262144 -1 -1 0 1
;
#X obj 28 27 r randomnumbergenerator;
#X obj 25 179 metro 1;
#X floatatom 25 223 5 0 0 0 - - -, f 5;
#X obj 25 201 random 116;
#X obj 55 54 bng 15 250 50 0 empty empty empty 17 7 0 10 -262144 -1
-1;
#X connect 0 0 23 0;
#X connect 1 0 6 0;
#X connect 2 0 7 0;
#X connect 3 0 8 0;
#X connect 4 0 9 0;
#X connect 5 0 10 0;
#X connect 6 0 24 0;
#X connect 7 0 24 0;
#X connect 8 0 24 0;
#X connect 9 0 24 0;
#X connect 10 0 24 0;
#X connect 11 0 16 0;
#X connect 12 0 17 0;
#X connect 13 0 18 0;
#X connect 14 0 19 0;
#X connect 15 0 20 0;
#X connect 16 0 24 0;
#X connect 17 0 24 0;
#X connect 18 0 24 0;
#X connect 19 0 24 0;
#X connect 20 0 24 0;
#X connect 21 0 22 0;
#X connect 22 0 24 0;
#X connect 23 0 1 0;
#X connect 23 1 2 0;
#X connect 23 2 3 0;
#X connect 23 3 4 0;
#X connect 23 4 5 0;
#X connect 23 5 11 0;
#X connect 23 6 12 0;
#X connect 23 7 13 0;
#X connect 23 8 14 0;
#X connect 23 9 15 0;
#X connect 23 10 21 0;
#X connect 28 0 30 0;
#X connect 29 0 33 0;
#X connect 30 0 32 0;
#X connect 32 0 31 0;
#X connect 33 0 28 0;
#X restore 379 315 pd a_s_d_f_g_h_j_k_l_ \; _';
#N canvas 1 83 450 300 z_x_c_v_b_n_m_ 0;
#X obj 109 20 key;
#X obj 109 62 bng 15 250 50 0 empty empty empty 17 7 0 10 -262144 -1
-1;
#X obj 134 62 bng 15 250 50 0 empty empty empty 17 7 0 10 -262144 -1
-1;
#X obj 160 62 bng 15 250 50 0 empty empty empty 17 7 0 10 -262144 -1
-1;
#X obj 186 62 bng 15 250 50 0 empty empty empty 17 7 0 10 -262144 -1
-1;
#X obj 212 62 bng 15 250 50 0 empty empty empty 17 7 0 10 -262144 -1
-1;
#X msg 109 81 1;
#X msg 134 81 2;
#X msg 160 81 3;
#X msg 186 81 4;
#X msg 212 81 5;
#X obj 240 62 bng 15 250 50 0 empty empty empty 17 7 0 10 -262144 -1
-1;
#X obj 265 62 bng 15 250 50 0 empty empty empty 17 7 0 10 -262144 -1
-1;
#X obj 291 62 bng 15 250 50 0 empty empty empty 17 7 0 10 -262144 -1
-1;
#X obj 317 62 bng 15 250 50 0 empty empty empty 17 7 0 10 -262144 -1
-1;
#X msg 240 81 6;
#X msg 265 81 7;
#X msg 291 81 8;
#X msg 317 81 9;
#X obj 109 41 sel 122 120 99 118 98 110 109 44 46, f 52;
#X text 278 14 " \,;
#X text 289 14 " \, .;
#X text 153 14 z \, x \, c \, v \, b \, n \, m \,;
#X obj 39 -56 tgl 15 0 empty empty empty 17 7 0 10 -262144 -1 -1 0
1;
#X obj 29 -108 r randomnumbergenerator;
#X obj 26 44 metro 1;
#X floatatom 26 88 5 0 0 0 - - -, f 5;
#X obj 26 66 random 123;
#X obj 29 -86 bng 15 250 50 0 empty empty empty 17 7 0 10 -262144 -1
-1;
#X obj 109 104 s Time_signature;
#X connect 0 0 19 0;
#X connect 1 0 6 0;
#X connect 2 0 7 0;
#X connect 3 0 8 0;
#X connect 4 0 9 0;
#X connect 5 0 10 0;
#X connect 6 0 29 0;
#X connect 7 0 29 0;
#X connect 8 0 29 0;
#X connect 9 0 29 0;
#X connect 10 0 29 0;
#X connect 11 0 15 0;
#X connect 12 0 16 0;
#X connect 13 0 17 0;
#X connect 14 0 18 0;
#X connect 15 0 29 0;
#X connect 16 0 29 0;
#X connect 17 0 29 0;
#X connect 18 0 29 0;
#X connect 19 0 1 0;
#X connect 19 1 2 0;
#X connect 19 2 3 0;
#X connect 19 3 4 0;
#X connect 19 4 5 0;
#X connect 19 5 11 0;
#X connect 19 6 12 0;
#X connect 19 7 13 0;
#X connect 19 8 14 0;
#X connect 23 0 25 0;
#X connect 24 0 28 0;
#X connect 25 0 27 0;
#X connect 27 0 26 0;
#X connect 28 0 23 0;
#X restore 850 170 pd z_x_c_v_b_n_m_ \, _.;
#N canvas 0 0 1910 1004 Y_B 0;
#X obj 278 253 key;
#X obj 278 295 bng 15 250 50 0 empty empty empty 17 7 0 10 -262144
-1 -1;
#X obj 303 295 bng 15 250 50 0 empty empty empty 17 7 0 10 -262144
-1 -1;
#X msg 278 314 1;
#X msg 303 314 2;
#X obj 278 340 s Melodic_Contours;
#X text 314 250 Y \, B;
#X obj 278 274 sel 89 66;
#X obj 171 204 tgl 15 0 empty empty empty 17 7 0 10 -262144 -1 -1 0
1;
#X floatatom 184 337 5 0 0 0 - - -, f 5;
#X obj 184 158 r randomnumbergenerator;
#X obj 160 296 random 90;
#X obj 183 264 metro 1;
#X obj 184 180 bng 15 250 50 0 empty empty empty 17 7 0 10 -262144
-1 -1;
#X connect 0 0 7 0;
#X connect 1 0 3 0;
#X connect 2 0 4 0;
#X connect 3 0 5 0;
#X connect 4 0 5 0;
#X connect 7 0 1 0;
#X connect 7 1 2 0;
#X connect 8 0 12 0;
#X connect 9 0 7 0;
#X connect 10 0 13 0;
#X connect 11 0 9 0;
#X connect 12 0 11 0;
#X connect 13 0 8 0;
#X restore 1285 79 pd Y_B;
#N canvas 721 331 450 300 F_G_H 0;
#X obj 99 203 key;
#X obj 99 245 bng 15 250 50 0 empty empty empty 17 7 0 10 -262144 -1
-1;
#X obj 124 245 bng 15 250 50 0 empty empty empty 17 7 0 10 -262144
-1 -1;
#X msg 99 264 1;
#X msg 124 264 2;
#X obj 99 290 s Instrumentation_Group_1;
#X text 128 200 F \, G \, H;
#X obj 156 245 bng 15 250 50 0 empty empty empty 17 7 0 10 -262144
-1 -1;
#X msg 156 264 3;
#X obj 99 224 sel 70 71 72, f 18;
#X obj 29 77 tgl 15 0 empty empty empty 17 7 0 10 -262144 -1 -1 0 1
;
#X floatatom 42 210 5 0 0 0 - - -, f 5;
#X obj 24 32 r randomnumbergenerator;
#X obj 18 169 random 73;
#X obj 41 137 metro 1;
#X obj 24 54 bng 15 250 50 0 empty empty empty 17 7 0 10 -262144 -1
-1;
#X connect 0 0 9 0;
#X connect 1 0 3 0;
#X connect 2 0 4 0;
#X connect 3 0 5 0;
#X connect 4 0 5 0;
#X connect 7 0 8 0;
#X connect 8 0 5 0;
#X connect 9 0 1 0;
#X connect 9 1 2 0;
#X connect 9 2 7 0;
#X connect 10 0 14 0;
#X connect 12 0 15 0;
#X connect 13 0 11 0;
#X connect 14 0 13 0;
#X connect 15 0 10 0;
#X restore 1549 45 pd F_G_H;
#N canvas 0 0 1910 1004 +_- 0;
#X obj 28 227 sel 45 61;
#N canvas 889 227 513 393 Volume 0;
#X obj 8 7 inlet;
#X obj 56 7 inlet;
#X obj 8 25 t b b;
#X obj 56 25 t b b;
#X obj 8 89 f;
#X obj 8 115 spigot 0;
#X obj 63 115 spigot 0;
#X obj 53 91 tgl 15 0 empty empty empty 17 7 0 10 -262144 -1 -1 0 1
;
#X obj 108 91 tgl 15 0 empty empty empty 17 7 0 10 -262144 -1 -1 0
1;
#X msg 28 49 1, f 1;
#X msg 43 49 0, f 1;
#X msg 92 50 1, f 1;
#X msg 76 50 0, f 1;
#X obj 8 159 outlet;
#X obj 8 136 - 0.1;
#X obj 63 136 + 0.2;
#X connect 0 0 2 0;
#X connect 1 0 3 0;
#X connect 2 0 4 0;
#X connect 2 1 9 0;
#X connect 2 1 10 0;
#X connect 3 0 4 0;
#X connect 3 1 11 0;
#X connect 3 1 12 0;
#X connect 4 0 5 0;
#X connect 4 0 6 0;
#X connect 5 0 14 0;
#X connect 6 0 15 0;
#X connect 7 0 5 1;
#X connect 8 0 6 1;
#X connect 9 0 7 0;
#X connect 10 0 8 0;
#X connect 11 0 8 0;
#X connect 12 0 7 0;
#X connect 14 0 4 1;
#X connect 14 0 13 0;
#X connect 15 0 4 1;
#X connect 15 0 13 0;
#X restore 28 255 pd Volume +/-;
#X obj 28 191 key;
#X obj 28 282 s bang;
#X text 58 191 + \, -;
#X obj 214 289 key;
#X obj 216 323 sel 33;
#X obj 147 103 tgl 15 0 empty empty empty 17 7 0 10 -262144 -1 -1 0
1;
#X floatatom 160 236 5 0 0 0 - - -, f 5;
#X obj 142 58 r randomnumbergenerator;
#X obj 136 195 random 62;
#X obj 159 163 metro 1;
#X msg 98 121 0.5;
#X text 200 269 shift + 1;
#X obj 162 82 bng 15 250 50 0 empty empty empty 17 7 0 10 -262144 -1
-1;
#X obj 216 360 outlet;
#X connect 0 0 1 0;
#X connect 0 1 1 1;
#X connect 1 0 3 0;
#X connect 2 0 0 0;
#X connect 5 0 6 0;
#X connect 6 0 15 0;
#X connect 7 0 11 0;
#X connect 8 0 0 0;
#X connect 8 0 6 0;
#X connect 9 0 12 0;
#X connect 9 0 14 0;
#X connect 10 0 8 0;
#X connect 11 0 10 0;
#X connect 12 0 3 0;
#X connect 14 0 7 0;
#X restore 1764 137 pd +_-;
#N canvas 721 331 450 300 0_9 0;
#N canvas 689 296 513 370 Volume 0;
#X obj 8 7 inlet;
#X obj 56 7 inlet;
#X obj 8 25 t b b;
#X obj 56 25 t b b;
#X obj 8 89 f;
#X obj 8 136 - 0.1;
#X obj 8 115 spigot 0;
#X obj 63 115 spigot 0;
#X obj 53 91 tgl 15 0 empty empty empty 17 7 0 10 -262144 -1 -1 0 1
;
#X obj 108 91 tgl 15 0 empty empty empty 17 7 0 10 -262144 -1 -1 0
1;
#X msg 28 49 1, f 1;
#X msg 43 49 0, f 1;
#X msg 92 50 1, f 1;
#X msg 76 50 0, f 1;
#X obj 8 159 outlet;
#X obj 63 136 + 0.2;
#X connect 0 0 2 0;
#X connect 1 0 3 0;
#X connect 2 0 4 0;
#X connect 2 1 10 0;
#X connect 2 1 11 0;
#X connect 3 0 4 0;
#X connect 3 1 12 0;
#X connect 3 1 13 0;
#X connect 4 0 6 0;
#X connect 4 0 7 0;
#X connect 5 0 4 1;
#X connect 5 0 14 0;
#X connect 6 0 5 0;
#X connect 7 0 15 0;
#X connect 8 0 6 1;
#X connect 9 0 7 1;
#X connect 10 0 8 0;
#X connect 11 0 9 0;
#X connect 12 0 9 0;
#X connect 13 0 8 0;
#X connect 15 0 4 1;
#X connect 15 0 14 0;
#X restore 40 123 pd Volume +/-;
#X obj 40 59 key;
#X obj 40 150 s bang1;
#X text 71 60 0 \, 9;
#X obj 40 95 sel 57 48;
#X obj 363 84 key;
#X obj 365 118 sel 34;
#X obj 211 144 tgl 15 0 empty empty empty 17 7 0 10 -262144 -1 -1 0
1;
#X floatatom 224 277 5 0 0 0 - - -, f 5;
#X obj 206 99 r randomnumbergenerator;
#X obj 200 236 random 58;
#X obj 223 204 metro 1;
#X msg 75 219 0.5;
#X text 355 58 shift + 2;
#X obj 368 167 outlet;
#X connect 0 0 2 0;
#X connect 1 0 4 0;
#X connect 4 0 0 0;
#X connect 4 1 0 1;
#X connect 5 0 6 0;
#X connect 6 0 14 0;
#X connect 7 0 11 0;
#X connect 8 0 4 0;
#X connect 8 0 6 0;
#X connect 9 0 7 0;
#X connect 9 0 12 0;
#X connect 10 0 8 0;
#X connect 11 0 10 0;
#X connect 12 0 2 0;
#X restore 1741 311 pd 0_9;
#N canvas 0 0 450 300 Q_W 0;
#X obj 21 203 key;
#X obj 21 245 bng 15 250 50 0 empty empty empty 17 7 0 10 -262144 -1
-1;
#X obj 46 245 bng 15 250 50 0 empty empty empty 17 7 0 10 -262144 -1
-1;
#X msg 21 264 1;
#X msg 46 264 2;
#X obj 21 290 s Instrumentation_Group_2;
#X text 57 202 Q \, W;
#X obj 21 224 sel 81 87;
#X obj 111 77 tgl 15 0 empty empty empty 17 7 0 10 -262144 -1 -1 0
1;
#X floatatom 124 210 5 0 0 0 - - -, f 5;
#X obj 99 30 r randomnumbergenerator;
#X obj 123 137 metro 1;
#X obj 100 169 random 88;
#X obj 190 261 - 0.3;
#X obj 234 260 + 0.3;
#X obj 99 52 bng 15 250 50 0 empty empty empty 17 7 0 10 -262144 -1
-1;
#X connect 0 0 7 0;
#X connect 1 0 3 0;
#X connect 2 0 4 0;
#X connect 3 0 5 0;
#X connect 4 0 5 0;
#X connect 7 0 1 0;
#X connect 7 0 13 0;
#X connect 7 1 2 0;
#X connect 7 1 14 0;
#X connect 8 0 11 0;
#X connect 9 0 7 0;
#X connect 10 0 15 0;
#X connect 11 0 12 0;
#X connect 12 0 9 0;
#X connect 15 0 8 0;
#X restore 2179 377 pd Q_W;
#N canvas 0 83 1366 660 8_7 0;
#N canvas 689 296 513 370 Volume 0;
#X obj 8 7 inlet;
#X obj 56 7 inlet;
#X obj 8 25 t b b;
#X obj 56 25 t b b;
#X obj 8 89 f;
#X obj 8 136 - 0.1;
#X obj 8 115 spigot 0;
#X obj 63 115 spigot 0;
#X obj 53 91 tgl 15 0 empty empty empty 17 7 0 10 -262144 -1 -1 0 1
;
#X obj 108 91 tgl 15 0 empty empty empty 17 7 0 10 -262144 -1 -1 0
1;
#X msg 28 49 1, f 1;
#X msg 43 49 0, f 1;
#X msg 92 50 1, f 1;
#X msg 76 50 0, f 1;
#X obj 8 159 outlet;
#X obj 63 136 + 0.2;
#X connect 0 0 2 0;
#X connect 1 0 3 0;
#X connect 2 0 4 0;
#X connect 2 1 10 0;
#X connect 2 1 11 0;
#X connect 3 0 4 0;
#X connect 3 1 12 0;
#X connect 3 1 13 0;
#X connect 4 0 6 0;
#X connect 4 0 7 0;
#X connect 5 0 4 1;
#X connect 5 0 14 0;
#X connect 6 0 5 0;
#X connect 7 0 15 0;
#X connect 8 0 6 1;
#X connect 9 0 7 1;
#X connect 10 0 8 0;
#X connect 11 0 9 0;
#X connect 12 0 9 0;
#X connect 13 0 8 0;
#X connect 15 0 4 1;
#X connect 15 0 14 0;
#X restore 34 223 pd Volume +/-;
#X obj 34 159 key;
#X obj 34 270 s bang2;
#X text 77 155 8 \, 7;
#X obj 100 185 print;
#X obj 34 195 sel 55 56;
#X obj 164 85 tgl 15 0 empty empty empty 17 7 0 10 -262144 -1 -1 0
1;
#X floatatom 177 218 5 0 0 0 - - -, f 5;
#X obj 159 40 r randomnumbergenerator;
#X obj 153 177 random 57;
#X obj 176 145 metro 1;
#X msg 262 213 0.5;
#X obj 361 260 key;
#X obj 363 294 sel 163;
#X text 345 230 shift + 3;
#X obj 281 173 random 164;
#X floatatom 281 195 5 0 0 0 - - -, f 5;
#X obj 149 72 bng 15 250 50 0 empty empty empty 17 7 0 10 -262144 -1
-1;
#X obj 359 338 outlet;
#X connect 0 0 2 0;
#X connect 1 0 4 0;
#X connect 1 0 5 0;
#X connect 5 0 0 0;
#X connect 5 1 0 1;
#X connect 6 0 10 0;
#X connect 7 0 5 0;
#X connect 8 0 11 0;
#X connect 8 0 17 0;
#X connect 9 0 7 0;
#X connect 10 0 9 0;
#X connect 10 0 15 0;
#X connect 11 0 2 0;
#X connect 12 0 13 0;
#X connect 13 0 18 0;
#X connect 15 0 16 0;
#X connect 16 0 13 0;
#X connect 17 0 6 0;
#X restore 2419 410 pd 8_7;
#N canvas 0 0 1892 963 6_5 0;
#N canvas 0 360 513 370 Volume 0;
#X obj 8 7 inlet;
#X obj 56 7 inlet;
#X obj 8 25 t b b;
#X obj 56 25 t b b;
#X obj 8 89 f;
#X obj 8 136 - 0.1;
#X obj 8 115 spigot 0;
#X obj 63 115 spigot 0;
#X obj 53 91 tgl 15 0 empty empty empty 17 7 0 10 -262144 -1 -1 0 1
;
#X obj 108 91 tgl 15 0 empty empty empty 17 7 0 10 -262144 -1 -1 0
1;
#X msg 28 49 1, f 1;
#X msg 43 49 0, f 1;
#X msg 92 50 1, f 1;
#X msg 76 50 0, f 1;
#X obj 8 159 outlet;
#X obj 63 136 + 0.2;
#X connect 0 0 2 0;
#X connect 1 0 3 0;
#X connect 2 0 4 0;
#X connect 2 1 10 0;
#X connect 2 1 11 0;
#X connect 3 0 4 0;
#X connect 3 1 12 0;
#X connect 3 1 13 0;
#X connect 4 0 6 0;
#X connect 4 0 7 0;
#X connect 5 0 4 1;
#X connect 5 0 14 0;
#X connect 6 0 5 0;
#X connect 7 0 15 0;
#X connect 8 0 6 1;
#X connect 9 0 7 1;
#X connect 10 0 8 0;
#X connect 11 0 9 0;
#X connect 12 0 9 0;
#X connect 13 0 8 0;
#X connect 15 0 4 1;
#X connect 15 0 14 0;
#X restore 111 179 pd Volume +/-;
#X obj 111 115 key;
#X obj 111 206 s bang3;
#X obj 111 151 sel 53 54;
#X obj 251 197 tgl 15 0 empty empty empty 17 7 0 10 -262144 -1 -1 0
1;
#X floatatom 264 330 5 0 0 0 - - -, f 5;
#X obj 246 152 r randomnumbergenerator;
#X obj 240 289 random 55;
#X obj 263 257 metro 1;
#X msg 154 255 0.5;
#X obj 435 127 key;
#X obj 437 161 sel 36;
#X obj 273 180 bng 15 250 50 0 empty empty empty 17 7 0 10 -262144
-1 -1;
#X text 145 116 6 \, 5;
#X obj 623 267 outlet;
#X connect 0 0 2 0;
#X connect 1 0 3 0;
#X connect 3 0 0 0;
#X connect 3 1 0 1;
#X connect 4 0 8 0;
#X connect 5 0 3 0;
#X connect 5 0 11 0;
#X connect 6 0 9 0;
#X connect 6 0 12 0;
#X connect 7 0 5 0;
#X connect 8 0 7 0;
#X connect 9 0 2 0;
#X connect 10 0 11 0;
#X connect 11 0 14 0;
#X connect 12 0 4 0;
#X restore 2455 620 pd 6_5;
#N canvas 0 0 450 300 Y_U_I_O_P 0;
#X obj 62 316 key;
#X obj 62 358 bng 15 250 50 0 empty empty empty 17 7 0 10 -262144 -1
-1;
#X obj 87 358 bng 15 250 50 0 empty empty empty 17 7 0 10 -262144 -1
-1;
#X obj 113 358 bng 15 250 50 0 empty empty empty 17 7 0 10 -262144
-1 -1;
#X obj 139 358 bng 15 250 50 0 empty empty empty 17 7 0 10 -262144
-1 -1;
#X obj 165 358 bng 15 250 50 0 empty empty empty 17 7 0 10 -262144
-1 -1;
#X msg 62 377 1;
#X msg 87 377 2;
#X msg 113 377 3;
#X msg 139 377 4;
#X msg 165 377 5;
#X obj 62 400 s Instrumentation_Group_3;
#X text 98 310 Y \, U \, I \, O \, P;
#X obj 62 337 sel 89 85 73 79 80;
#X obj 153 92 tgl 15 0 empty empty empty 17 7 0 10 -262144 -1 -1 0
1;
#X floatatom 166 225 5 0 0 0 - - -, f 5;
#X obj 65 58 r randomnumbergenerator;
#X obj 142 184 random 90;
#X obj 165 152 metro 1;
#X obj 65 80 bng 15 250 50 0 empty empty empty 17 7 0 10 -262144 -1
-1;
#X connect 0 0 13 0;
#X connect 1 0 6 0;
#X connect 2 0 7 0;
#X connect 3 0 8 0;
#X connect 4 0 9 0;
#X connect 5 0 10 0;
#X connect 6 0 11 0;
#X connect 7 0 11 0;
#X connect 8 0 11 0;
#X connect 9 0 11 0;
#X connect 10 0 11 0;
#X connect 13 0 1 0;
#X connect 13 1 2 0;
#X connect 13 2 3 0;
#X connect 13 3 4 0;
#X connect 13 4 5 0;
#X connect 14 0 18 0;
#X connect 15 0 13 0;
#X connect 16 0 19 0;
#X connect 17 0 15 0;
#X connect 18 0 17 0;
#X connect 19 0 14 0;
#X restore 2935 633 pd Y_U_I_O_P;
#N canvas 0 0 1910 981 2_1 0;
#N canvas 0 360 513 370 Volume 0;
#X obj 8 7 inlet;
#X obj 56 7 inlet;
#X obj 8 25 t b b;
#X obj 56 25 t b b;
#X obj 8 89 f;
#X obj 8 136 - 0.1;
#X obj 8 115 spigot 0;
#X obj 63 115 spigot 0;
#X obj 53 91 tgl 15 0 empty empty empty 17 7 0 10 -262144 -1 -1 0 1
;
#X obj 108 91 tgl 15 0 empty empty empty 17 7 0 10 -262144 -1 -1 0
1;
#X msg 28 49 1, f 1;
#X msg 43 49 0, f 1;
#X msg 92 50 1, f 1;
#X msg 76 50 0, f 1;
#X obj 8 159 outlet;
#X obj 63 136 + 0.2;
#X connect 0 0 2 0;
#X connect 1 0 3 0;
#X connect 2 0 4 0;
#X connect 2 1 10 0;
#X connect 2 1 11 0;
#X connect 3 0 4 0;
#X connect 3 1 12 0;
#X connect 3 1 13 0;
#X connect 4 0 6 0;
#X connect 4 0 7 0;
#X connect 5 0 4 1;
#X connect 5 0 14 0;
#X connect 6 0 5 0;
#X connect 7 0 15 0;
#X connect 8 0 6 1;
#X connect 9 0 7 1;
#X connect 10 0 8 0;
#X connect 11 0 9 0;
#X connect 12 0 9 0;
#X connect 13 0 8 0;
#X connect 15 0 4 1;
#X connect 15 0 14 0;
#X restore 224 125 pd Volume +/-;
#X obj 224 61 key;
#X obj 224 152 s bang5;
#X text 267 63 2 \, 1;
#X obj 224 97 sel 49 50;
#X obj 55 170 tgl 15 0 empty empty empty 17 7 0 10 -262144 -1 -1 0
1;
#X floatatom 68 303 5 0 0 0 - - -, f 5;
#X obj 50 125 r randomnumbergenerator;
#X obj 44 262 random 51;
#X obj 67 230 metro 1;
#X msg 189 188 0.5;
#X obj 454 64 key;
#X obj 503 131 sel 94;
#X text 451 40 shift + 6;
#X obj 202 229 random 95;
#X floatatom 192 262 5 0 0 0 - - -, f 5;
#X obj 50 147 bng 15 250 50 0 empty empty empty 17 7 0 10 -262144 -1
-1;
#X obj 500 172 outlet;
#X connect 0 0 2 0;
#X connect 1 0 4 0;
#X connect 4 0 0 0;
#X connect 4 1 0 1;
#X connect 5 0 9 0;
#X connect 6 0 4 0;
#X connect 7 0 10 0;
#X connect 7 0 16 0;
#X connect 8 0 6 0;
#X connect 9 0 8 0;
#X connect 9 0 14 0;
#X connect 10 0 2 0;
#X connect 11 0 12 0;
#X connect 12 0 17 0;
#X connect 14 0 15 0;
#X connect 15 0 12 0;
#X connect 16 0 5 0;
#X restore 3180 844 pd 2_1;
#N canvas 721 331 450 300 4_3 0;
#N canvas 0 360 513 370 Volume 0;
#X obj 8 7 inlet;
#X obj 56 7 inlet;
#X obj 8 25 t b b;
#X obj 56 25 t b b;
#X obj 8 89 f;
#X obj 8 136 - 0.1;
#X obj 8 115 spigot 0;
#X obj 63 115 spigot 0;
#X obj 53 91 tgl 15 0 empty empty empty 17 7 0 10 -262144 -1 -1 0 1
;
#X obj 108 91 tgl 15 0 empty empty empty 17 7 0 10 -262144 -1 -1 0
1;
#X msg 28 49 1, f 1;
#X msg 43 49 0, f 1;
#X msg 92 50 1, f 1;
#X msg 76 50 0, f 1;
#X obj 8 159 outlet;
#X obj 63 136 + 0.2;
#X connect 0 0 2 0;
#X connect 1 0 3 0;
#X connect 2 0 4 0;
#X connect 2 1 10 0;
#X connect 2 1 11 0;
#X connect 3 0 4 0;
#X connect 3 1 12 0;
#X connect 3 1 13 0;
#X connect 4 0 6 0;
#X connect 4 0 7 0;
#X connect 5 0 4 1;
#X connect 5 0 14 0;
#X connect 6 0 5 0;
#X connect 7 0 15 0;
#X connect 8 0 6 1;
#X connect 9 0 7 1;
#X connect 10 0 8 0;
#X connect 11 0 9 0;
#X connect 12 0 9 0;
#X connect 13 0 8 0;
#X connect 15 0 4 1;
#X connect 15 0 14 0;
#X restore 169 46 pd Volume +/-;
#X obj 169 -18 key;
#X obj 169 73 s bang4;
#X obj 169 18 sel 51 52;
#X text 204 -17 4 \, 3;
#X obj 272 -147 tgl 15 0 empty empty empty 17 7 0 10 -262144 -1 -1
0 1;
#X floatatom 285 -14 5 0 0 0 - - -, f 5;
#X obj 267 -192 r randomnumbergenerator;
#X obj 261 -55 random 53;
#X obj 284 -87 metro 1;
#X msg 343 35 0.5;
#X obj 410 62 key;
#X obj 412 96 sel 37;
#X text 402 40 shift + 5;
#X obj 267 -170 bng 15 250 50 0 empty empty empty 17 7 0 10 -262144
-1 -1;
#X obj 467 111 outlet;
#X connect 0 0 2 0;
#X connect 1 0 3 0;
#X connect 3 0 0 0;
#X connect 3 1 0 1;
#X connect 5 0 9 0;
#X connect 6 0 3 0;
#X connect 6 0 12 0;
#X connect 7 0 10 0;
#X connect 7 0 14 0;
#X connect 8 0 6 0;
#X connect 9 0 8 0;
#X connect 10 0 2 0;
#X connect 11 0 12 0;
#X connect 12 0 15 0;
#X connect 14 0 5 0;
#X restore 3178 634 pd 4_3;
#N canvas 0 0 1910 981 Z_X_C_V_B 0;
#X obj 83 304 key;
#X obj 83 346 bng 15 250 50 0 empty empty empty 17 7 0 10 -262144 -1
-1;
#X obj 108 346 bng 15 250 50 0 empty empty empty 17 7 0 10 -262144
-1 -1;
#X obj 134 346 bng 15 250 50 0 empty empty empty 17 7 0 10 -262144
-1 -1;
#X obj 160 346 bng 15 250 50 0 empty empty empty 17 7 0 10 -262144
-1 -1;
#X obj 186 346 bng 15 250 50 0 empty empty empty 17 7 0 10 -262144
-1 -1;
#X msg 83 365 1;
#X msg 108 365 2;
#X msg 134 365 3;
#X msg 160 365 4;
#X msg 186 365 5;
#X text 119 298 Z \, X \, C \, V \, B;
#X obj 83 325 sel 90 88 67 86 66, f 52;
#X obj 83 388 s Instrumentation_Group_4;
#X obj 72 132 tgl 15 0 empty empty empty 17 7 0 10 -262144 -1 -1 0
1;
#X floatatom 85 255 5 0 0 0 - - -, f 5;
#X obj 71 86 r randomnumbergenerator;
#X obj 61 214 random 91;
#X obj 84 182 metro 1;
#X obj 71 108 bng 15 250 50 0 empty empty empty 17 7 0 10 -262144 -1
-1;
#X connect 0 0 12 0;
#X connect 1 0 6 0;
#X connect 2 0 7 0;
#X connect 3 0 8 0;
#X connect 4 0 9 0;
#X connect 5 0 10 0;
#X connect 6 0 13 0;
#X connect 7 0 13 0;
#X connect 8 0 13 0;
#X connect 9 0 13 0;
#X connect 10 0 13 0;
#X connect 12 0 1 0;
#X connect 12 1 2 0;
#X connect 12 2 3 0;
#X connect 12 3 4 0;
#X connect 12 4 5 0;
#X connect 14 0 18 0;
#X connect 15 0 12 0;
#X connect 16 0 19 0;
#X connect 17 0 15 0;
#X connect 18 0 17 0;
#X connect 19 0 14 0;
#X restore 3710 928 pd Z_X_C_V_B;
#N canvas 0 0 450 300 S_A 0;
#N canvas 689 296 513 370 Volume 0;
#X obj 8 7 inlet;
#X obj 56 7 inlet;
#X obj 8 25 t b b;
#X obj 56 25 t b b;
#X obj 8 89 f;
#X obj 8 136 - 0.1;
#X obj 8 115 spigot 0;
#X obj 63 115 spigot 0;
#X obj 53 91 tgl 15 0 empty empty empty 17 7 0 10 -262144 -1 -1 0 1
;
#X obj 108 91 tgl 15 0 empty empty empty 17 7 0 10 -262144 -1 -1 0
1;
#X msg 28 49 1, f 1;
#X msg 43 49 0, f 1;
#X msg 92 50 1, f 1;
#X msg 76 50 0, f 1;
#X obj 8 159 outlet;
#X obj 63 136 + 0.2;
#X connect 0 0 2 0;
#X connect 1 0 3 0;
#X connect 2 0 4 0;
#X connect 2 1 10 0;
#X connect 2 1 11 0;
#X connect 3 0 4 0;
#X connect 3 1 12 0;
#X connect 3 1 13 0;
#X connect 4 0 6 0;
#X connect 4 0 7 0;
#X connect 5 0 4 1;
#X connect 5 0 14 0;
#X connect 6 0 5 0;
#X connect 7 0 15 0;
#X connect 8 0 6 1;
#X connect 9 0 7 1;
#X connect 10 0 8 0;
#X connect 11 0 9 0;
#X connect 12 0 9 0;
#X connect 13 0 8 0;
#X connect 15 0 4 1;
#X connect 15 0 14 0;
#X restore 67 310 pd Volume +/-;
#X obj 67 246 key;
#X obj 67 337 s bang6;
#X obj 62 69 tgl 15 0 empty empty empty 17 7 0 10 -262144 -1 -1 0 1
;
#X floatatom 75 202 5 0 0 0 - - -, f 5;
#X obj 57 24 r randomnumbergenerator;
#X obj 51 161 random 84;
#X obj 74 129 metro 1;
#X obj 67 282 sel 65 83;
#X text 102 247 S \, A;
#X msg 177 270 0.5;
#X obj 57 46 bng 15 250 50 0 empty empty empty 17 7 0 10 -262144 -1
-1;
#X connect 0 0 2 0;
#X connect 1 0 8 0;
#X connect 3 0 7 0;
#X connect 3 0 10 0;
#X connect 4 0 8 0;
#X connect 5 0 11 0;
#X connect 6 0 4 0;
#X connect 7 0 6 0;
#X connect 8 0 0 0;
#X connect 8 1 0 1;
#X connect 10 0 2 0;
#X connect 11 0 3 0;
#X restore 3893 940 pd S_A;
#N canvas 3 117 948 479 group2readsf 0;
#X obj 29 14 inlet;
#X obj 29 37 route zero;
#X obj 256 15 inlet;
#X obj 256 148 spigot;
#X msg 289 121 0;
#X msg 329 121 1;
#X obj 29 85 t b;
#X obj 86 85 t s b;
#X msg 86 318 open Ab/ivm7/128/18.wav \, 1;
#X obj 86 61 symbol;
#X obj 256 246 t b b;
#X obj 86 341 readsf~;
#X obj 125 371 s loop;
#X msg 86 195 set open \$1 \, addcomma \, add2 1;
#X text 367 123 spigot logic makes the next sound to be triggered only
if there is no zero in the chain.;
#X text 281 193 this is what creates a dynamic message \, and allows
all the logic i made work automatically.;
#X text 312 247 here you will trigger every readsf~ for the group;
#X obj 283 462 readsf~;
#X obj 322 492 s loop;
#X obj 157 10 inlet;
#X obj 157 241 t f;
#X obj 283 321 f;
#X obj 298 288 t f;
#X obj 283 344 sel 1 2;
#X text 296 404 these aren't dynamic \, it can be on a separate folder
if you want \, it is the snare and tom-toms in this group.;
#X obj 473 462 readsf~;
#X obj 512 492 s loop;
#X text 340 341 this will remember the radio position \, so i trigger
the snare or the tom-toms. I hope this is what you want;
#X msg 283 439 open C/Imaj7/128/15.wav \, 1;
#X msg 473 439 open Eb/II7/78/19.wav \, 1;
#X obj 473 515 throw~ drum_two;
#X obj 86 394 throw~ instrumentation_two;
#X obj 283 515 throw~ drum_twoa;
#X obj 376 491 bng 15 250 50 0 empty empty empty 17 7 0 10 -262144
-1 -1;
#X obj 569 491 bng 15 250 50 0 empty empty empty 17 7 0 10 -262144
-1 -1;
#X obj 207 486 s loopbang;
#X connect 0 0 1 0;
#X connect 1 0 6 0;
#X connect 1 1 9 0;
#X connect 2 0 3 0;
#X connect 3 0 10 0;
#X connect 4 0 3 1;
#X connect 5 0 3 1;
#X connect 6 0 4 0;
#X connect 7 0 13 0;
#X connect 7 1 5 0;
#X connect 8 0 11 0;
#X connect 9 0 7 0;
#X connect 10 0 8 0;
#X connect 10 1 21 0;
#X connect 11 0 31 0;
#X connect 11 1 12 0;
#X connect 11 1 35 0;
#X connect 13 0 8 0;
#X connect 17 0 32 0;
#X connect 17 1 18 0;
#X connect 17 1 33 0;
#X connect 19 0 20 0;
#X connect 20 0 22 0;
#X connect 21 0 23 0;
#X connect 22 0 21 1;
#X connect 23 0 28 0;
#X connect 23 1 29 0;
#X connect 25 0 30 0;
#X connect 25 1 26 0;
#X connect 25 1 34 0;
#X connect 28 0 17 0;
#X connect 29 0 25 0;
#X restore 2178 618 pd group2readsf;
#N canvas 472 0 948 963 getSymbolToDisplay 0;
#X obj 323 576 outlet;
#X obj 584 222 text define -k pitchFlat;
#A set C \; Db \; D \; Eb \; E \; F \; Gb \; G \; Ab \; A \; Bb \;
B \;;
#X obj 584 243 text define -k pitchSharp;
#A set C \; C# \; D \; D# \; E \; F \; F# \; G \; G# \; A \; A# \;
B \;;
#X obj 586 312 text define -k pitchDictList;
#A set zero \; 1 0 \; 0 1 \; 1 2 \; 1 3 \; 0 4 \; 1 5 \; 0 6 \; 1 7
\; 1 8 \; 0 9 \; 1 10 \; 0 11 \;;
#X obj 586 405 text define -k harmonyDictList;
#A set zero \; 0 maj7 \; 0 m7 \; 0 7 \; 1 maj7 \; 2 7 \; 5 7 \; 5 m7
\; 5 maj7 \; 8 7 \; 8 maj7 \; 9 m7 \;;
#X obj 52 7 r pitchSymbol;
#X obj 239 5 r harmSymbol;
#X obj 52 33 text get pitchDictList;
#X obj 52 56 list trim;
#X obj 52 79 route zero;
#X obj 109 199 unpack f f;
#X obj 109 225 swap;
#X obj 239 56 list trim;
#X obj 239 79 route zero;
#X obj 239 33 text get harmonyDictList;
#X obj 109 262 +;
#X obj 151 229 t b f;
#X obj 109 325 route 0 1;
#X obj 109 283 mod 12;
#X obj 134 368 text get pitchFlat;
#X obj 109 395 t a;
#X obj 323 459 makefilename;
#X obj 109 446 symbol;
#X obj 109 347 text get pitchSharp;
#X obj 450 5 r timeSignatureSymbol;
#X obj 296 171 t a a;
#X msg 296 193 \$1;
#X msg 323 193 \$2;
#X obj 323 241 makefilename %d;
#X obj 323 294 t s;
#X obj 585 158 text define -k timeSigDictSymbol;
#A set zero \; _in_12/8 \; _in_11/8 \; _in_10/8 \; _in_9/8 \; _in_8/8
\; _in_7/8 \; _in_6/8 \; _in_5/8 \; _in_4/8 \;;
#X obj 450 34 text get timeSigDictSymbol;
#X obj 450 78 route zero;
#X obj 323 407 makefilename %%s%s%%%%s;
#X obj 323 544 makefilename;
#X obj 507 456 t a;
#X msg 382 518 set \$1;
#X msg 323 430 set \$1;
#X obj 323 517 symbol;
#X obj 323 481 t b a;
#X obj 323 216 route float;
#X obj 386 270 symbol;
#X text 594 182 the symbol to get at the end;
#X text 555 263 these are chromatic scales with flat or sharps;
#X text 566 334 each lists says : A B;
#X text 565 349 A: 0 -> sharp \; 1 -> flat \;, f 17;
#X text 565 375 B: number of semitones from C to that Root;
#X text 565 427 each lists says: A B;
#X text 564 442 A: number of semitones from the root scale to that
chord;
#X text 564 457 B: the type of the chord;
#X obj 450 57 list trim;
#X obj 239 123 symbol;
#X msg 239 102 zero;
#X obj 450 158 symbol;
#X msg 450 137 zero;
#X obj 507 194 t a;
#X obj 52 371 symbol;
#X msg 52 350 zero;
#X obj 239 146 t b s;
#X msg 239 174 0;
#X obj 109 136 t a b, f 18;
#X obj 109 469 spigot, f 18;
#X msg 214 448 1;
#X obj 52 394 t a b;
#X msg 158 447 0;
#X obj 52 542 t a;
#X obj 109 304 list prepend 0;
#X symbolatom 566 705 14 0 0 0 - - -, f 14;
#X obj 548 621 symbol;
#X obj 513 555 r loopbang;
#X msg 517 800 \; cnv_BigMessage label \$1;
#X connect 5 0 7 0;
#X connect 6 0 14 0;
#X connect 7 0 8 0;
#X connect 8 0 9 0;
#X connect 9 0 57 0;
#X connect 9 1 60 0;
#X connect 10 0 11 0;
#X connect 10 1 11 1;
#X connect 11 0 15 0;
#X connect 11 1 66 1;
#X connect 12 0 13 0;
#X connect 13 0 52 0;
#X connect 13 1 25 0;
#X connect 14 0 12 0;
#X connect 15 0 18 0;
#X connect 16 0 15 0;
#X connect 16 1 15 1;
#X connect 17 0 23 0;
#X connect 17 1 19 0;
#X connect 18 0 66 0;
#X connect 19 0 20 0;
#X connect 20 0 22 0;
#X connect 21 0 39 0;
#X connect 22 0 61 0;
#X connect 23 0 20 0;
#X connect 24 0 31 0;
#X connect 25 0 26 0;
#X connect 25 1 27 0;
#X connect 26 0 16 0;
#X connect 27 0 40 0;
#X connect 28 0 29 0;
#X connect 29 0 33 0;
#X connect 31 0 50 0;
#X connect 32 0 54 0;
#X connect 32 1 55 0;
#X connect 33 0 37 0;
#X connect 34 0 0 0;
#X connect 34 0 68 1;
#X connect 35 0 38 0;
#X connect 36 0 34 0;
#X connect 37 0 21 0;
#X connect 38 0 34 0;
#X connect 39 0 38 0;
#X connect 39 1 36 0;
#X connect 40 0 28 0;
#X connect 40 1 41 0;
#X connect 41 0 29 0;
#X connect 50 0 32 0;
#X connect 51 0 58 0;
#X connect 52 0 51 0;
#X connect 53 0 55 0;
#X connect 54 0 53 0;
#X connect 55 0 35 0;
#X connect 56 0 63 0;
#X connect 57 0 56 0;
#X connect 58 0 59 0;
#X connect 58 1 29 0;
#X connect 59 0 16 0;
#X connect 60 0 10 0;
#X connect 60 1 62 0;
#X connect 61 0 65 0;
#X connect 62 0 61 1;
#X connect 63 0 65 0;
#X connect 63 1 64 0;
#X connect 64 0 61 1;
#X connect 65 0 21 0;
#X connect 66 0 17 0;
#X connect 67 0 70 0;
#X connect 68 0 67 0;
#X connect 69 0 68 0;
#X restore 372 762 pd getSymbolToDisplay;
#X obj 91 771 s pitchSymbol;
#X obj 408 616 s harmSymbol;
#X obj 875 467 s timeSignatureSymbol;
#X symbolatom 427 800 0 0 0 0 - - -;
#X obj 372 835 s symbol;
#X text 521 760 here goes the logic we wanted. it will be right when
you choose the 3 parameters. Root_Pitch \, Harmony and Time_Signature.
;
#X obj 1740 230 hsl 128 15 0 0.75 0 0 empty B Hi-Hat -2 -8 0 15 -262144
-1 -1 10700 1;
#X obj 1740 174 hsl 128 15 0 0.75 0 0 empty A Crotales\ Glock\ Xylo
-2 -8 0 15 -262144 -1 -1 5200 1;
#X obj 2425 514 hsl 128 15 0 0.75 0 0 empty D Snare\ Tom-Toms -2 -8
0 15 -262144 -1 -1 6600 1;
#X obj 3159 765 hsl 128 15 0 0.75 0 0 empty F Bass\ Drum -2 -8 0 15
-262144 -1 -1 8800 1;
#X obj 3157 713 hsl 128 15 0 0.75 0 0 empty E Harp\ Square -2 -8 0
15 -262144 -1 -1 9700 1;
#X obj 3909 1024 hsl 128 15 0 0.75 0 0 empty G Harp\ Square\ Bass\ Drum\ w/\ Paulstretch
-2 -8 0 15 -262144 -1 -1 12700 1;
#X obj 2425 454 hsl 128 15 0 0.75 0 0 empty C Synth\ Brass\ FM\ Synth
-2 -8 0 15 -262144 -1 -1 10400 1;
#X obj 1740 193 s hslider1;
#X obj 1740 250 s hslider1b;
#X obj 2425 478 s hslider2;
#X obj 2425 534 s hslider2b;
#X obj 3157 733 s hslider3;
#X obj 3159 785 s hslider3b;
#X obj 3925 1060 s hslider4;
#X obj 2442 571 s hslider2c;
#X obj 337 874 r symbol;
#X symbolatom 367 900 16 5 10 0 - - -, f 16;
#X obj 304 909 symbol;
#X obj 304 849 r loop;
#X symbolatom 683 893 0 0 0 0 - - -;
#X obj 628 928 s symbolinBb;
#X symbolatom 641 986 16 5 10 0 - - -, f 16;
#X obj 578 995 symbol;
#X obj 578 935 r loop;
#X obj 611 960 r symbolinBb;
#N canvas 472 0 948 963 getSymbolToDisplayInBb 0;
#X obj 323 576 outlet;
#X obj 584 222 text define -k pitchFlat;
#A set C \; Db \; D \; Eb \; E \; F \; Gb \; G \; Ab \; A \; Bb \;
B \;;
#X obj 584 243 text define -k pitchSharp;
#A set C \; C# \; D \; D# \; E \; F \; F# \; G \; G# \; A \; A# \;
B \;;
#X obj 52 7 r pitchSymbol;
#X obj 239 5 r harmSymbol;
#X obj 52 56 list trim;
#X obj 52 79 route zero;
#X obj 109 199 unpack f f;
#X obj 109 225 swap;
#X obj 239 56 list trim;
#X obj 239 79 route zero;
#X obj 109 262 +;
#X obj 151 229 t b f;
#X obj 109 325 route 0 1;
#X obj 109 283 mod 12;
#X obj 134 368 text get pitchFlat;
#X obj 109 395 t a;
#X obj 323 459 makefilename;
#X obj 109 446 symbol;
#X obj 109 347 text get pitchSharp;
#X obj 450 5 r timeSignatureSymbol;
#X obj 296 171 t a a;
#X msg 296 193 \$1;
#X msg 323 193 \$2;
#X obj 323 241 makefilename %d;
#X obj 323 294 t s;
#X obj 585 158 text define -k timeSigDictSymbol;
#A set zero \; _in_12/8 \; _in_11/8 \; _in_10/8 \; _in_9/8 \; _in_8/8
\; _in_7/8 \; _in_6/8 \; _in_5/8 \; _in_4/8 \;;
#X obj 450 34 text get timeSigDictSymbol;
#X obj 450 78 route zero;
#X obj 323 407 makefilename %%s%s%%%%s;
#X obj 323 544 makefilename;
#X obj 507 456 t a;
#X msg 382 518 set \$1;
#X msg 323 430 set \$1;
#X obj 323 517 symbol;
#X obj 323 481 t b a;
#X obj 323 216 route float;
#X obj 386 270 symbol;
#X text 594 182 the symbol to get at the end;
#X text 555 263 these are chromatic scales with flat or sharps;
#X text 566 334 each lists says : A B;
#X text 565 349 A: 0 -> sharp \; 1 -> flat \;, f 17;
#X text 565 375 B: number of semitones from C to that Root;
#X text 565 427 each lists says: A B;
#X text 564 442 A: number of semitones from the root scale to that
chord;
#X text 564 457 B: the type of the chord;
#X obj 450 57 list trim;
#X obj 239 123 symbol;
#X msg 239 102 zero;
#X obj 450 158 symbol;
#X msg 450 137 zero;
#X obj 507 194 t a;
#X obj 52 371 symbol;
#X msg 52 350 zero;
#X obj 239 146 t b s;
#X msg 239 174 0;
#X obj 109 136 t a b, f 18;
#X obj 109 469 spigot, f 18;
#X msg 214 448 1;
#X obj 52 394 t a b;
#X msg 158 447 0;
#X obj 52 542 t a;
#X obj 109 304 list prepend 0;
#X obj 560 307 text define -k pitchDictListInBb;
#A set zero \; 1 10 \; 0 11 \; 1 0 \; 1 1 \; 0 2 \; 1 3 \; 0 4 \; 1
5 \; 1 6 \; 0 7 \; 1 8 \; 0 9 \;;
#X obj 584 403 text define -k harmonyDictList;
#A set zero \; 0 maj7 \; 0 m7 \; 0 7 \; 1 maj7 \; 2 7 \; 5 7 \; 5 m7
\; 5 maj7 \; 8 7 \; 8 maj7 \; 9 m7 \;;
#X obj 52 33 text get pitchDictListInBb;
#X obj 239 33 text get harmonyDictList;
#X symbolatom 550 708 14 0 0 0 - - -, f 14;
#X obj 532 624 symbol;
#X obj 497 558 r loopbang;
#X msg 568 795 \; cnv_BigMessageInBb label \$1;
#X connect 3 0 65 0;
#X connect 4 0 66 0;
#X connect 5 0 6 0;
#X connect 6 0 53 0;
#X connect 6 1 56 0;
#X connect 7 0 8 0;
#X connect 7 1 8 1;
#X connect 8 0 11 0;
#X connect 8 1 62 1;
#X connect 9 0 10 0;
#X connect 10 0 48 0;
#X connect 10 1 21 0;
#X connect 11 0 14 0;
#X connect 12 0 11 0;
#X connect 12 1 11 1;
#X connect 13 0 19 0;
#X connect 13 1 15 0;
#X connect 14 0 62 0;
#X connect 15 0 16 0;
#X connect 16 0 18 0;
#X connect 17 0 35 0;
#X connect 18 0 57 0;
#X connect 19 0 16 0;
#X connect 20 0 27 0;
#X connect 21 0 22 0;
#X connect 21 1 23 0;
#X connect 22 0 12 0;
#X connect 23 0 36 0;
#X connect 24 0 25 0;
#X connect 25 0 29 0;
#X connect 27 0 46 0;
#X connect 28 0 50 0;
#X connect 28 1 51 0;
#X connect 29 0 33 0;
#X connect 30 0 0 0;
#X connect 30 0 68 1;
#X connect 31 0 34 0;
#X connect 32 0 30 0;
#X connect 33 0 17 0;
#X connect 34 0 30 0;
#X connect 35 0 34 0;
#X connect 35 1 32 0;
#X connect 36 0 24 0;
#X connect 36 1 37 0;
#X connect 37 0 25 0;
#X connect 46 0 28 0;
#X connect 47 0 54 0;
#X connect 48 0 47 0;
#X connect 49 0 51 0;
#X connect 50 0 49 0;
#X connect 51 0 31 0;
#X connect 52 0 59 0;
#X connect 53 0 52 0;
#X connect 54 0 55 0;
#X connect 54 1 25 0;
#X connect 55 0 12 0;
#X connect 56 0 7 0;
#X connect 56 1 58 0;
#X connect 57 0 61 0;
#X connect 58 0 57 1;
#X connect 59 0 61 0;
#X connect 59 1 60 0;
#X connect 60 0 57 1;
#X connect 61 0 17 0;
#X connect 62 0 13 0;
#X connect 65 0 5 0;
#X connect 66 0 9 0;
#X connect 67 0 70 0;
#X connect 68 0 67 0;
#X connect 69 0 68 0;
#X restore 628 855 pd getSymbolToDisplayInBb;
#X connect 5 0 65 0;
#X connect 5 0 152 0;
#X connect 19 0 66 0;
#X connect 19 0 153 0;
#X connect 32 0 67 0;
#X connect 32 0 154 0;
#X connect 43 0 102 1;
#X connect 48 0 81 0;
#X connect 52 0 75 0;
#X connect 59 0 78 0;
#X connect 65 0 80 0;
#X connect 65 0 106 0;
#X connect 66 0 65 1;
#X connect 67 0 66 1;
#X connect 68 0 150 2;
#X connect 69 0 84 1;
#X connect 70 0 72 1;
#X connect 72 0 150 0;
#X connect 72 1 71 0;
#X connect 73 0 75 1;
#X connect 75 0 83 0;
#X connect 75 1 74 0;
#X connect 76 0 78 1;
#X connect 78 0 84 0;
#X connect 78 1 77 0;
#X connect 80 0 79 0;
#X connect 81 0 72 0;
#X connect 81 1 150 1;
#X connect 82 0 83 1;
#X connect 98 0 102 0;
#X connect 101 0 102 2;
#X connect 102 0 105 0;
#X connect 102 1 104 0;
#X connect 103 0 105 1;
#X connect 108 0 109 0;
#X connect 110 0 90 0;
#X connect 111 0 91 0;
#X connect 112 0 92 0;
#X connect 113 0 93 0;
#X connect 114 0 95 0;
#X connect 115 0 94 0;
#X connect 117 0 119 0;
#X connect 117 0 126 0;
#X connect 117 0 125 0;
#X connect 117 0 124 0;
#X connect 117 0 123 0;
#X connect 117 0 122 0;
#X connect 117 0 121 0;
#X connect 117 0 120 0;
#X connect 118 0 117 0;
#X connect 127 0 134 0;
#X connect 127 0 133 0;
#X connect 127 0 132 0;
#X connect 127 0 131 0;
#X connect 127 0 130 0;
#X connect 140 0 110 0;
#X connect 141 0 111 0;
#X connect 143 0 112 0;
#X connect 144 0 113 0;
#X connect 146 0 114 0;
#X connect 147 0 115 0;
#X connect 151 0 155 0;
#X connect 151 0 156 0;
#X connect 158 0 166 0;
#X connect 159 0 165 0;
#X connect 160 0 168 0;
#X connect 160 0 172 0;
#X connect 161 0 170 0;
#X connect 162 0 169 0;
#X connect 163 0 171 0;
#X connect 164 0 167 0;
#X connect 173 0 174 0;
#X connect 173 0 175 1;
#X connect 176 0 175 0;
#X connect 181 0 180 0;
#X connect 182 0 179 0;
#X connect 182 0 180 1;
#X connect 183 0 177 0;
#X connect 183 0 178 0;
