#N canvas 0 0 1892 963 10;
#X obj 454 867 catch~ instrumentation_two;
#X obj 532 926 *~ 40;
#X obj 700 786 tgl 15 0 empty empty empty 17 7 0 10 -262144 -1 -1 1
1;
#X obj 655 1112 *~ 0;
#X floatatom 752 1121 5 0 0 0 - - -, f 5;
#X floatatom 817 1121 5 0 0 0 - - -, f 5;
#X obj 598 1112 *~ 1;
#X msg 643 915 1;
#X msg 687 915 0;
#X obj 643 892 t b;
#X msg 752 920 1;
#X msg 796 920 0;
#X obj 752 897 t b;
#X obj 694 840 route 0 1;
#X obj 968 1317 tgl 15 0 empty empty empty 17 7 0 10 -262144 -1 -1
0 1;
#X obj 917 1667 *~ 0;
#X floatatom 979 1663 5 0 0 0 - - -, f 5;
#X floatatom 1021 1663 5 0 0 0 - - -, f 5;
#X obj 873 1667 *~ 1;
#X msg 905 1392 1;
#X msg 949 1392 0;
#X obj 905 1369 t b;
#X msg 1014 1397 1;
#X msg 1058 1397 0;
#X obj 1014 1374 t b;
#X obj 993 1341 route 0 1;
#X obj 870 1463 *~;
#X obj 727 1388 catch~ instrumentation_three;
#X text 729 781 Distortion On/Off;
#X obj 700 758 r chordsFX;
#X obj 581 1018 *~ 0.2;
#X obj 860 1418 osc~ 5;
#X obj 1376 1182 dac~;
#X obj 968 1287 r bassFX;
#X obj 1335 496 dac~;
#X obj 1335 436 catch~ instrumentation_four;
#X obj 1414 468 r hslider4;
#X obj 1165 868 catch~ drum_twoa;
#X obj 421 185 catch~ instrumentation_one;
#X obj 525 232 *~ 0.2;
#X obj 627 193 delread~ melodyEcho 400;
#X obj 627 239 *~;
#X obj 627 261 *~ 0.75;
#X obj 576 347 *~ 1;
#X obj 826 123 r MelodyFX;
#X obj 826 145 tgl 15 0 empty empty empty 17 7 0 10 -262144 -1 -1 1
1;
#X msg 826 165 \$1 20;
#X obj 826 187 vline~;
#X obj 628 485 dac~;
#X obj 643 365 r hslider1;
#X obj 1203 982 *~ 0.2;
#X obj 1375 967 *~;
#X obj 1375 989 *~ 0.75;
#X obj 1324 1075 *~ 1;
#X obj 1574 873 tgl 15 0 empty empty empty 17 7 0 10 -262144 -1 -1
1 1;
#X msg 1574 893 \$1 20;
#X obj 1574 915 vline~;
#X obj 1968 902 *~ 0.2;
#X obj 2151 889 *~;
#X obj 2151 911 *~ 0.75;
#X obj 2100 997 *~ 1;
#X obj 2350 795 tgl 15 0 empty empty empty 17 7 0 10 -262144 -1 -1
1 1;
#X msg 2350 815 \$1 20;
#X obj 2350 837 vline~;
#X obj 1657 1458 *~ 0.2;
#X obj 1828 1441 *~;
#X obj 1828 1463 *~ 0.75;
#X obj 1777 1549 *~ 1;
#X obj 2027 1347 tgl 15 0 empty empty empty 17 7 0 10 -262144 -1 -1
1 1;
#X msg 2027 1367 \$1 20;
#X obj 2027 1389 vline~;
#X obj 2027 1325 r bassdrumFX;
#X obj 1176 454 dac~;
#X obj 1175 205 *~;
#X obj 1124 313 *~ 1;
#X obj 1374 111 tgl 15 0 empty empty empty 17 7 0 10 -262144 -1 -1
1 1;
#X msg 1374 131 \$1 20;
#X obj 1374 153 vline~;
#X obj 971 112 catch~ drum_one;
#X obj 1374 89 r hi-hatFX;
#X obj 1945 800 catch~ drum_two;
#X obj 1623 1339 catch~ drum_three;
#X obj 2151 853 delread~ tomsEcho 400;
#X obj 1828 1405 delread~ bassEcho 400;
#X obj 421 291 delwrite~ melodyEcho 1000;
#X obj 969 257 delwrite~ hihatEcho 1000;
#X obj 1169 1019 delwrite~ snareEcho 1000;
#X obj 1622 1493 delwrite~ bassEcho 1000;
#X obj 1945 941 delwrite~ tomsEcho 1000;
#X obj 628 412 *~;
#X obj 1176 379 *~;
#X obj 598 1139 +~;
#X obj 598 1160 *~;
#X obj 638 1160 r hslider2;
#X obj 1391 1095 r hslider2b;
#X obj 598 1189 dac~;
#X obj 2152 1117 dac~;
#X obj 2167 1046 r hslider2c;
#X obj 1829 1660 dac~;
#X obj 1829 1628 *~;
#X obj 1844 1585 r hslider3b;
#X obj 873 1738 dac~;
#X obj 873 1706 *~;
#X obj 913 1706 r hslider3;
#X obj 1335 466 *~;
#X obj 1175 227 *~ 0.75;
#X obj 1000 224 *~ 0.2;
#X obj 1175 168 delread~ hihatEcho 100;
#X obj 1574 851 r snareFX;
#X obj 1191 340 r hslider1b;
#X obj 628 435 *~ 1;
#X obj 1176 402 *~ 1;
#X obj 1375 931 delread~ snareEcho 400;
#X obj 2350 773 r snareFX;
#X obj 1376 1150 *~ 0.4;
#X obj 2152 1085 *~ 1.8;
#X obj 532 947 clip~ -0.25 0.25;
#X connect 0 0 1 0;
#X connect 0 0 6 0;
#X connect 1 0 116 0;
#X connect 2 0 13 0;
#X connect 3 0 91 0;
#X connect 6 0 91 0;
#X connect 7 0 6 1;
#X connect 7 0 4 0;
#X connect 8 0 5 0;
#X connect 8 0 3 1;
#X connect 9 0 7 0;
#X connect 9 0 8 0;
#X connect 10 0 3 1;
#X connect 10 0 4 0;
#X connect 11 0 6 1;
#X connect 11 0 5 0;
#X connect 12 0 10 0;
#X connect 12 0 11 0;
#X connect 13 0 9 0;
#X connect 13 1 12 0;
#X connect 14 0 25 0;
#X connect 15 0 102 0;
#X connect 18 0 102 0;
#X connect 19 0 18 1;
#X connect 19 0 16 0;
#X connect 20 0 17 0;
#X connect 20 0 15 1;
#X connect 21 0 19 0;
#X connect 21 0 20 0;
#X connect 22 0 15 1;
#X connect 23 0 18 1;
#X connect 23 0 17 0;
#X connect 24 0 22 0;
#X connect 24 0 23 0;
#X connect 25 0 21 0;
#X connect 25 1 24 0;
#X connect 26 0 15 0;
#X connect 27 0 18 0;
#X connect 27 0 26 0;
#X connect 29 0 2 0;
#X connect 30 0 3 0;
#X connect 31 0 26 1;
#X connect 33 0 14 0;
#X connect 35 0 104 0;
#X connect 36 0 104 1;
#X connect 37 0 86 0;
#X connect 37 0 53 0;
#X connect 38 0 84 0;
#X connect 38 0 43 0;
#X connect 39 0 84 0;
#X connect 40 0 41 0;
#X connect 40 0 39 0;
#X connect 41 0 42 0;
#X connect 42 0 89 0;
#X connect 43 0 89 0;
#X connect 44 0 45 0;
#X connect 45 0 46 0;
#X connect 46 0 47 0;
#X connect 47 0 41 1;
#X connect 49 0 89 1;
#X connect 50 0 86 0;
#X connect 51 0 52 0;
#X connect 52 0 114 0;
#X connect 53 0 114 0;
#X connect 54 0 55 0;
#X connect 55 0 56 0;
#X connect 56 0 51 1;
#X connect 57 0 88 0;
#X connect 58 0 59 0;
#X connect 59 0 115 0;
#X connect 60 0 115 0;
#X connect 61 0 62 0;
#X connect 62 0 63 0;
#X connect 63 0 58 1;
#X connect 64 0 87 0;
#X connect 65 0 66 0;
#X connect 66 0 99 0;
#X connect 67 0 99 0;
#X connect 68 0 69 0;
#X connect 69 0 70 0;
#X connect 70 0 65 1;
#X connect 71 0 68 0;
#X connect 73 0 105 0;
#X connect 74 0 90 0;
#X connect 75 0 76 0;
#X connect 76 0 77 0;
#X connect 77 0 73 1;
#X connect 78 0 74 0;
#X connect 78 0 85 0;
#X connect 79 0 75 0;
#X connect 80 0 88 0;
#X connect 80 0 60 0;
#X connect 81 0 87 0;
#X connect 81 0 67 0;
#X connect 82 0 58 0;
#X connect 82 0 57 0;
#X connect 83 0 65 0;
#X connect 83 0 64 0;
#X connect 89 0 110 0;
#X connect 90 0 111 0;
#X connect 91 0 92 0;
#X connect 92 0 95 0;
#X connect 92 0 95 1;
#X connect 93 0 92 1;
#X connect 94 0 114 1;
#X connect 97 0 115 1;
#X connect 99 0 98 0;
#X connect 99 0 98 1;
#X connect 100 0 99 1;
#X connect 102 0 101 0;
#X connect 102 0 101 1;
#X connect 103 0 102 1;
#X connect 104 0 34 0;
#X connect 104 0 34 1;
#X connect 105 0 90 0;
#X connect 106 0 85 0;
#X connect 107 0 73 0;
#X connect 107 0 106 0;
#X connect 108 0 54 0;
#X connect 109 0 90 1;
#X connect 110 0 48 0;
#X connect 110 0 48 1;
#X connect 111 0 72 0;
#X connect 111 0 72 1;
#X connect 112 0 51 0;
#X connect 112 0 50 0;
#X connect 113 0 61 0;
#X connect 114 0 32 0;
#X connect 114 0 32 1;
#X connect 115 0 96 0;
#X connect 115 0 96 1;
#X connect 116 0 30 0;
